<svg xmlns="http://www.w3.org/2000/svg" xmlns:xlink="http://www.w3.org/1999/xlink" width="2348" height="3156" fill="none" xmlns:v="https://vecta.io/nano"><style><![CDATA[.B{fill-rule:evenodd}.C{opacity:.1}.D{fill:#000}.E{opacity:.2}.F{color-interpolation-filters:sRGB}.G{flood-opacity:0}]]></style><g filter="url(#A)" class="B"><path d="M274.454 920.776c-27.179 7.282-43.31 35.223-36.031 62.407 3.637 13.59 12.452 24.417 23.746 30.937s25.073 8.74 38.661 5.09l4.227-1.12 59.908-103.767c5.88-11.844 16.314-21.351 29.694-25.752l-120.205 32.205z" fill="url(#S)"/><path d="M397.423 887.755l-2.755.818 2.85-.763c13.574-3.647 27.342-1.45 38.626 5.049l-.045-.026c-11.294-6.52-25.08-8.726-38.676-5.078z" fill="url(#S)"/><path d="M397.495 887.801l-2.85.763c-13.38 4.401-23.814 13.908-29.694 25.751l1.581-2.738c14.068-24.367 45.237-32.718 69.61-18.647l.022.013c6.402 3.696 11.703 8.574 15.779 14.211-4.242-5.882-9.66-10.738-15.822-14.304-11.284-6.499-25.053-8.696-38.626-5.049z" fill="url(#S)"/><path d="M460.539 926.418a50.69 50.69 0 0 1-1.813 27.657 51.03 51.03 0 0 1-3.911 8.47l-61.543 106.595 1.091 4.06c3.64 13.6 12.452 24.43 23.752 30.95 11.288 6.52 25.07 8.73 38.667 5.08 27.18-7.27 43.312-35.21 36.031-62.4l-32.274-120.412z" fill="url(#S)"/><path d="M305.046 1018.08l-28.541 49.43c-14.072 24.38-5.72 55.55 18.652 69.62 24.378 14.07 55.543 5.72 69.614-18.66l28.487-49.34-18.675-69.688-69.537 18.638z" fill="url(#S)"/><path d="M364.958 914.317L305.05 1018.08l69.538-18.637-13.205-49.3a50.73 50.73 0 0 1 3.575-35.826z" fill="url(#S)"/><path d="M423.878 986.244l-49.285 13.206 18.674 69.69 61.543-106.593 1.048-2.036c-6.362 12.239-17.602 21.886-31.98 25.733z" fill="url(#S)"/><path d="M460.426 926.015l-.598-2.23a50.98 50.98 0 0 0-7.875-16.628 50.66 50.66 0 0 0-15.779-14.211l-.022-.014c-24.373-14.071-55.542-5.719-69.61 18.648l-1.581 2.738c-5.328 10.718-6.917 23.356-3.576 35.826l13.206 49.3 49.285-13.206c16.826-4.499 29.414-16.921 34.843-32.167 3.271-9.191 3.735-18.91 1.707-28.056z" fill="url(#S)"/></g><g class="B D"><path d="M364.958 914.322L305.05 1018.09l69.538-18.642-13.206-49.3c-3.341-12.47-1.752-25.108 3.576-35.826z" class="C"/><path d="M423.878 986.242l-49.285 13.206 18.675 69.692 61.543-106.595 1.048-2.036c-6.363 12.239-17.603 21.885-31.981 25.733z" class="C"/><path d="M460.424 926.021l-.597-2.23a51 51 0 0 0-7.875-16.628c-4.077-5.638-9.377-10.515-15.779-14.212l-.022-.013c-24.373-14.071-55.542-5.719-69.611 18.648l-1.58 2.738c-5.328 10.718-6.917 23.356-3.576 35.826l13.205 49.3 49.285-13.206c16.826-4.499 29.415-16.921 34.843-32.168 3.272-9.19 3.736-18.909 1.707-28.055z" class="E"/></g><g filter="url(#B)" class="B"><path d="M349.103 1186.78c-27.175 7.28-43.31 35.23-36.031 62.41 3.651 13.59 12.452 24.42 23.746 30.94s25.077 8.73 38.667 5.09l4.225-1.13 59.894-103.74c5.875-11.85 16.306-21.37 29.692-25.76l-120.193 32.19z" fill="url(#T)"/><path d="M472.155 1153.81l-2.868.77c-13.386 4.4-23.817 13.92-29.692 25.76l1.591-2.75c14.071-24.37 45.243-32.72 69.61-18.65l.023.01c6.368 3.68 11.638 8.52 15.706 14.11-4.233-5.84-9.627-10.66-15.75-14.2-11.278-6.49-25.047-8.69-38.62-5.05z" fill="url(#T)"/><path d="M535.199 1192.46a50.59 50.59 0 0 1-2.008 28.18c-.995 2.7-2.231 5.34-3.717 7.92l-61.541 106.59 1.095 4.07a50.8 50.8 0 0 0 23.745 30.95c11.294 6.52 25.074 8.72 38.673 5.08 27.18-7.27 43.315-35.22 36.031-62.4l-32.278-120.39z" fill="url(#T)"/><path d="M535.421 1212.01l-.241 1.65c.118-.55.145-1.1.241-1.65z" fill="url(#T)"/><path d="M535.171 1213.66c-.501 2.34-1.157 4.67-2.006 6.97.838-2.27 1.498-4.6 2.006-6.97z" fill="url(#T)"/><path d="M536.159 1206.48c-.123 1.84-.425 3.69-.753 5.53l.753-5.53z" fill="url(#T)"/><path d="M379.697 1284.08l-28.545 49.44c-14.072 24.38-5.711 55.54 18.656 69.61 24.379 14.08 55.539 5.73 69.611-18.65l28.489-49.34-18.666-69.68-69.545 18.62z" fill="url(#T)"/><path d="M531.011 1225.56l-.686 1.32.686-1.32z" fill="url(#T)"/><path d="M531.029 1225.57l2.156-4.93c-.624 1.69-1.36 3.31-2.156 4.93z" fill="url(#T)"/><path d="M439.594 1180.34L379.7 1284.08l69.545-18.62-13.216-49.31c-3.339-12.46-1.757-25.09 3.565-35.81z" fill="url(#T)"/><path d="M498.521 1252.25l-49.279 13.21 18.666 69.68 61.54-106.59.875-1.67c-6.398 12.06-17.562 21.55-31.802 25.37z" fill="url(#T)"/><path d="M535.071 1192.05l-.601-2.26c-1.663-6.2-4.396-11.83-7.947-16.74-4.068-5.58-9.339-10.42-15.707-14.1l-.022-.01c-24.367-14.07-55.539-5.73-69.611 18.65l-1.59 2.75c-5.323 10.72-6.905 23.35-3.566 35.81l13.216 49.31 49.28-13.21c16.626-4.45 29.106-16.62 34.644-31.62 3.434-9.34 3.974-19.26 1.904-28.58z" fill="url(#T)"/></g><g class="B D"><path d="M439.598 1180.34l-59.894 103.74 69.545-18.62-13.217-49.31c-3.338-12.46-1.756-25.09 3.566-35.81z" class="C"/><path d="M498.522 1252.24l-49.279 13.21 18.666 69.68 61.54-106.59.876-1.67c-6.399 12.07-17.563 21.56-31.803 25.37z" class="C"/><path d="M535.07 1192.05l-.602-2.26c-1.662-6.2-4.395-11.84-7.947-16.74-4.067-5.58-9.338-10.42-15.706-14.1l-.022-.01c-24.367-14.07-55.54-5.73-69.611 18.65l-1.591 2.75c-5.322 10.72-6.904 23.35-3.566 35.81l13.217 49.31 49.28-13.21c16.625-4.45 29.105-16.62 34.644-31.62 3.434-9.34 3.974-19.26 1.904-28.58z" class="E"/></g><g filter="url(#C)" class="B"><path d="M615.101 1117.06c-27.18 7.27-43.315 35.22-36.03 62.4 3.651 13.59 12.452 24.42 23.746 30.94s25.07 8.73 38.661 5.09l4.227-1.12 59.898-103.75c5.875-11.85 16.306-21.36 29.686-25.76l-120.188 32.2z" fill="url(#U)"/><path d="M738.174 1084.09l-2.873.77c-13.38 4.4-23.811 13.92-29.686 25.76l1.59-2.75c14.072-24.37 45.238-32.72 69.611-18.65l.022.01a50.97 50.97 0 0 1 15.787 14.21c-4.244-5.87-9.662-10.73-15.831-14.3a50.77 50.77 0 0 0-38.62-5.05z" fill="url(#U)"/><path d="M801.183 1122.7c1.906 8.88 1.355 17.76-1.221 25.91-1.101 3.49-2.598 6.91-4.503 10.21l-61.54 106.59 1.089 4.06a50.84 50.84 0 0 0 23.751 30.96c11.294 6.52 25.079 8.73 38.667 5.08 27.186-7.27 43.321-35.21 36.031-62.4l-32.274-120.41z" fill="url(#U)"/><path d="M645.718 1214.37l-28.542 49.44c-14.071 24.37-5.716 55.53 18.656 69.6 24.378 14.08 55.539 5.73 69.611-18.64l28.489-49.35-18.677-69.69-69.537 18.64z" fill="url(#U)"/><path d="M705.613 1110.62l-59.899 103.75 69.538-18.64-13.205-49.3c-3.339-12.46-1.757-25.09 3.566-35.81z" fill="url(#U)"/><path d="M764.532 1182.52l-49.291 13.21 18.677 69.68 61.541-106.59c.547-.94.995-1.93 1.471-2.9-6.279 12.64-17.684 22.67-32.398 26.6z" fill="url(#U)"/><path d="M801.086 1122.32l-.603-2.25c-1.645-6.15-4.348-11.75-7.866-16.63-4.077-5.62-9.374-10.51-15.787-14.21l-.023-.01c-24.373-14.07-55.539-5.73-69.61 18.65l-1.591 2.75c-5.322 10.72-6.904 23.35-3.566 35.81l13.206 49.3 49.291-13.2c17.466-4.68 30.365-17.87 35.429-33.91a50.91 50.91 0 0 0 1.12-26.3z" fill="url(#U)"/></g><g class="B D"><path d="M705.614 1110.62l-59.898 103.75 69.538-18.64-13.206-49.3c-3.338-12.46-1.756-25.09 3.566-35.81z" class="C"/><path d="M764.534 1182.52l-49.291 13.21 18.678 69.69 61.54-106.6c.547-.94.995-1.93 1.471-2.89-6.279 12.63-17.684 22.66-32.398 26.59z" class="C"/><path d="M801.087 1122.32l-.602-2.25c-1.645-6.15-4.348-11.75-7.866-16.63-4.078-5.62-9.375-10.5-15.788-14.21l-.022-.01c-24.373-14.07-55.539-5.73-69.61 18.65l-1.591 2.75a50.74 50.74 0 0 0-3.566 35.81l13.206 49.3 49.29-13.2c17.467-4.68 30.365-17.87 35.43-33.91a50.91 50.91 0 0 0 1.119-26.3z" class="E"/></g><g filter="url(#D)" class="B"><path d="M80.778 1257.85c-27.178 7.28-43.31 35.22-36.031 62.41 3.642 13.59 12.452 24.42 23.746 30.94 11.289 6.51 25.068 8.73 38.661 5.09l4.227-1.13 59.908-103.76c5.88-11.85 16.314-21.35 29.694-25.75l-120.205 32.2z" fill="url(#V)"/><path d="M203.818 1224.88l-2.849.76c-13.381 4.4-23.814 13.91-29.695 25.75l1.581-2.73c14.068-24.37 45.238-32.72 69.611-18.65l.022.01c6.469 3.74 11.809 8.67 15.893 14.38a50.95 50.95 0 0 0-15.937-14.47c-11.284-6.5-25.047-8.69-38.626-5.05z" fill="url(#V)"/><path d="M266.857 1263.5c2.026 9.43 1.273 18.89-1.74 27.45l-.008.02-.003.01c-1.033 2.94-2.353 5.84-3.973 8.64l-61.54 106.59 1.085 4.07c3.648 13.6 12.455 24.43 23.755 30.95 11.288 6.52 25.075 8.73 38.663 5.09 27.184-7.28 43.316-35.22 36.034-62.41l-32.273-120.41z" fill="url(#V)"/><path d="M111.366 1355.16l-28.542 49.43c-14.071 24.38-5.72 55.55 18.653 69.62 24.378 14.07 55.542 5.72 69.614-18.66l28.489-49.34-18.674-69.7-69.54 18.65z" fill="url(#V)"/><path d="M171.275 1251.39l-59.907 103.77 69.54-18.64-13.208-49.3a50.74 50.74 0 0 1 3.575-35.83z" fill="url(#V)"/><path d="M230.207 1323.32l-49.282 13.2 18.674 69.7 61.54-106.59 1.083-2.09c-6.369 12.25-17.616 21.92-32.015 25.78z" fill="url(#V)"/><path d="M265.097 1290.97l.007-.03c3.202-9.13 3.655-18.77 1.634-27.85l-.598-2.23c-1.631-6.09-4.297-11.63-7.759-16.46-4.084-5.7-9.425-10.64-15.894-14.38l-.022-.01c-24.373-14.07-55.543-5.72-69.611 18.65l-1.581 2.73c-5.328 10.72-6.916 23.36-3.575 35.83l13.208 49.29 49.282-13.2c16.892-4.52 29.513-17.01 34.906-32.34h.003z" fill="url(#V)"/></g><g class="B D"><path d="M171.274 1251.39l-59.908 103.76 69.541-18.64-13.209-49.3a50.72 50.72 0 0 1 3.576-35.82zm58.934 71.93l-49.282 13.2 18.674 69.69 61.54-106.59 1.083-2.08c-6.369 12.25-17.616 21.92-32.015 25.78z" class="C"/><path d="M265.099 1290.96l.007-.02a50.77 50.77 0 0 0 1.634-27.85l-.598-2.23c-1.631-6.09-4.297-11.63-7.759-16.47-4.085-5.7-9.425-10.64-15.894-14.37l-.022-.02c-24.373-14.07-55.543-5.72-69.611 18.65l-1.581 2.74a50.74 50.74 0 0 0-3.575 35.83l13.208 49.29 49.282-13.2c16.892-4.52 29.513-17.01 34.906-32.34l.003-.01z" class="E"/></g><g filter="url(#E)" class="B"><path d="M151.973 1526.8c-27.181 7.28-43.316 35.22-36.031 62.41 3.651 13.59 12.452 24.42 23.746 30.94s25.071 8.73 38.661 5.09l4.227-1.13 59.898-103.74c5.875-11.85 16.306-21.36 29.687-25.77l-120.188 32.2z" fill="url(#W)"/><path d="M275.046 1493.84l-2.873.77c-13.381 4.4-23.812 13.91-29.687 25.76l1.591-2.75c14.071-24.38 45.237-32.72 69.61-18.65l.022.01a50.86 50.86 0 0 1 15.788 14.21c-4.245-5.88-9.663-10.73-15.831-14.3a50.77 50.77 0 0 0-38.62-5.05z" fill="url(#W)"/><path d="M338.055 1532.44c1.905 8.88 1.355 17.77-1.222 25.92-1.1 3.49-2.597 6.91-4.502 10.21l-61.54 106.59 1.088 4.06c3.654 13.6 12.451 24.44 23.751 30.96 11.294 6.52 25.079 8.73 38.667 5.08 27.186-7.27 43.321-35.22 36.031-62.41l-32.273-120.41z" fill="url(#W)"/><use xlink:href="#k" fill="url(#W)"/><path d="M301.403 1592.27l-49.291 13.2 18.678 69.69 61.54-106.59c.547-.95.996-1.93 1.472-2.9-6.28 12.64-17.685 22.66-32.399 26.6z" fill="url(#W)"/><path d="M337.957 1532.07l-.603-2.25a50.74 50.74 0 0 0-7.866-16.63c-4.077-5.62-9.374-10.51-15.787-14.21l-.023-.01c-24.372-14.07-55.538-5.73-69.61 18.65l-1.59 2.75c-5.323 10.72-6.905 23.35-3.566 35.81l13.205 49.3 49.291-13.2c17.466-4.68 30.365-17.87 35.429-33.91a50.91 50.91 0 0 0 1.12-26.3z" fill="url(#W)"/><path d="M182.589 1624.12l-28.542 49.43c-14.071 24.38-5.716 55.54 18.656 69.61 24.379 14.08 55.539 5.73 69.611-18.65l28.49-49.34-18.678-69.69-69.537 18.64z" fill="url(#W)"/></g><g class="B D"><use xlink:href="#k" x="-0.002" class="C"/><path d="M301.401 1592.27l-49.291 13.21 18.678 69.68 61.54-106.59c.547-.95.995-1.93 1.471-2.9-6.279 12.64-17.684 22.67-32.398 26.6z" class="C"/><path d="M337.955 1532.07l-.603-2.24c-1.645-6.16-4.348-11.75-7.866-16.64-4.077-5.62-9.374-10.5-15.787-14.2l-.023-.02c-24.373-14.07-55.539-5.72-69.61 18.65l-1.591 2.75c-5.322 10.73-6.904 23.35-3.565 35.81l13.205 49.3 49.291-13.2c17.466-4.67 30.365-17.87 35.429-33.91 2.723-8.67 3.021-17.73 1.12-26.3z" class="E"/></g><g filter="url(#F)" class="B"><path d="M421.316 1453.26c-27.18 7.27-43.322 35.23-36.037 62.41 3.643 13.58 12.45 24.41 23.744 30.93s25.076 8.74 38.663 5.1l4.225-1.13 59.907-103.77c5.881-11.84 16.318-21.35 29.704-25.75l-120.206 32.21z" fill="url(#X)"/><path d="M544.358 1420.28l-2.849.77c-13.386 4.39-23.823 13.91-29.704 25.75l1.584-2.74c14.072-24.38 45.244-32.72 69.616-18.65 5.757 3.33 10.617 7.61 14.511 12.52-4.033-5.11-8.975-9.38-14.532-12.6-11.283-6.5-25.049-8.7-38.626-5.05z" fill="url(#X)"/><path d="M607.388 1458.87c1.899 8.84 1.362 17.69-1.181 25.81a51.06 51.06 0 0 1-4.533 10.34l-61.547 106.6 1.089 4.07c3.651 13.59 12.454 24.42 23.754 30.95 11.294 6.52 25.07 8.72 38.664 5.08 27.181-7.27 43.322-35.23 36.037-62.42l-32.283-120.43z" fill="url(#X)"/><path d="M608.426 1470.23l.014 1.36c.024-.46-.021-.91-.014-1.36z" fill="url(#X)"/><path d="M608.455 1471.6c-.067 1.78-.287 3.56-.55 5.34l.55-5.34z" fill="url(#X)"/><path d="M607.759 1478.21a51.28 51.28 0 0 1-1.556 6.48c.658-2.12 1.172-4.29 1.556-6.48z" fill="url(#X)"/><path d="M607.89 1476.93l-.14 1.27c.069-.42.083-.85.14-1.27z" fill="url(#X)"/><path d="M451.902 1550.56l-28.545 49.45c-14.072 24.37-5.705 55.52 18.668 69.6 24.366 14.08 55.533 5.73 69.611-18.65l28.483-49.34-18.671-69.69-69.546 18.63z" fill="url(#X)"/><path d="M511.811 1446.8l-59.907 103.76 69.546-18.64-13.211-49.3c-3.341-12.47-1.744-25.09 3.572-35.82z" fill="url(#X)"/><path d="M570.744 1518.72l-49.285 13.21 18.671 69.7 61.547-106.61c.567-.98 1.019-2 1.515-3-6.271 12.69-17.698 22.75-32.448 26.7z" fill="url(#X)"/><path d="M607.236 1458.32l-.561-2.06a50.78 50.78 0 0 0-5.599-13.19c-4.297-7.09-10.39-13.22-18.071-17.66-24.373-14.07-55.545-5.73-69.616 18.65l-1.584 2.74c-5.317 10.73-6.914 23.35-3.573 35.82l13.211 49.3 49.285-13.2c17.511-4.69 30.436-17.94 35.466-34.04a50.83 50.83 0 0 0 1.042-26.36z" fill="url(#X)"/></g><g class="B D"><path d="M511.812 1446.8l-59.907 103.76 69.546-18.64-13.211-49.3c-3.341-12.47-1.745-25.1 3.572-35.82z" class="C"/><path d="M570.741 1518.71l-49.285 13.21 18.671 69.7 61.547-106.6c.567-.98 1.019-2 1.515-3-6.271 12.68-17.698 22.75-32.448 26.69z" class="C"/><path d="M607.237 1458.32l-.562-2.06a50.89 50.89 0 0 0-5.599-13.19c-4.297-7.09-10.39-13.22-18.071-17.66-24.373-14.07-55.545-5.72-69.616 18.65l-1.584 2.74c-5.317 10.73-6.914 23.35-3.572 35.82l13.21 49.31 49.286-13.21c17.51-4.69 30.436-17.94 35.465-34.04 2.713-8.69 2.98-17.78 1.043-26.36z" class="E"/></g><g filter="url(#G)" class="B"><path d="M1730.06 51.661c-27.88 7.468-44.42 36.12-36.95 63.996 3.73 13.937 12.77 25.04 24.35 31.726 11.57 6.684 25.71 8.961 39.64 5.223l4.34-1.157 61.43-106.405c6.03-12.145 16.73-21.894 30.45-26.407l-123.26 33.024z" fill="url(#Y)"/><path d="M1856.16 17.799l-2.83.839 2.92-.783c13.92-3.739 28.04-1.487 39.61 5.178l-.04-.026c-11.59-6.687-25.72-8.949-39.66-5.208z" fill="url(#Y)"/><path d="M1856.23 17.847l-2.92.783c-13.72 4.513-24.42 14.262-30.45 26.407l1.62-2.808c14.42-24.988 46.39-33.552 71.38-19.122l.02.013a51.9 51.9 0 0 1 16.18 14.573c-4.35-6.032-9.9-11.012-16.22-14.668-11.57-6.665-25.69-8.917-39.61-5.178z" fill="url(#Y)"/><path d="M1920.88 57.447c2.08 9.757 1.29 19.522-1.86 28.361a51.95 51.95 0 0 1-4.01 8.686l-63.11 109.31 1.12 4.16c3.73 13.946 12.77 25.054 24.35 31.744 11.58 6.684 25.71 8.952 39.66 5.211 27.87-7.459 44.41-36.111 36.94-63.996l-33.09-123.476z" fill="url(#Y)"/><path d="M1761.43 151.442l-29.27 50.694c-14.43 24.993-5.87 56.956 19.13 71.386 24.99 14.433 56.95 5.866 71.38-19.128l29.21-50.596-19.15-71.468-71.3 19.112z" fill="url(#Y)"/><use xlink:href="#l" fill="url(#Y)"/><path d="M1883.28 118.797l-50.54 13.542 19.15 71.468L1915 94.496c.4-.685.72-1.389 1.08-2.088-6.53 12.55-18.05 22.442-32.8 26.388z" fill="url(#Y)"/><path d="M1920.76 57.034l-.61-2.287c-1.69-6.316-4.47-12.05-8.08-17.052a51.9 51.9 0 0 0-16.18-14.573l-.02-.013c-24.99-14.43-56.96-5.865-71.38 19.122l-1.62 2.808a51.97 51.97 0 0 0-3.67 36.738l13.54 50.555 50.54-13.542c17.26-4.614 30.17-17.352 35.73-32.986 3.36-9.424 3.83-19.391 1.75-28.77z" fill="url(#Y)"/></g><g class="B D"><use xlink:href="#l" y="0.005" class="C"/><path d="M1883.28 118.795l-50.54 13.542 19.15 71.468L1915 94.494c.4-.685.72-1.389 1.08-2.088-6.53 12.55-18.05 22.442-32.8 26.388z" class="C"/><path d="M1920.76 57.04l-.61-2.287c-1.69-6.316-4.48-12.05-8.08-17.052-4.18-5.781-9.61-10.783-16.18-14.573l-.02-.013c-24.99-14.43-56.96-5.865-71.38 19.122l-1.62 2.808a51.97 51.97 0 0 0-3.67 36.738l13.54 50.555 50.54-13.542c17.25-4.614 30.16-17.352 35.73-32.986 3.36-9.425 3.83-19.391 1.75-28.77z" class="E"/></g><g filter="url(#H)" class="B"><path d="M1806.6 324.441c-27.86 7.462-44.41 36.121-36.94 63.996 3.74 13.938 12.77 25.04 24.35 31.726s25.71 8.955 39.65 5.226l4.33-1.166 61.42-106.382c6.02-12.148 16.72-21.906 30.45-26.416l-123.26 33.016z" fill="url(#Z)"/><path d="M1932.79 290.634l-2.94.788c-13.73 4.51-24.42 14.268-30.45 26.416l1.63-2.825c14.43-24.993 46.4-33.549 71.39-19.122l.02.013c6.53 3.77 11.93 8.732 16.1 14.462-4.34-5.981-9.87-10.924-16.15-14.557-11.56-6.662-25.68-8.914-39.6-5.175z" fill="url(#Z)"/><path d="M1997.44 330.26c2.13 9.953 1.25 19.925-2.06 28.905-1.02 2.764-2.29 5.477-3.81 8.118l-63.11 109.304 1.12 4.169c3.74 13.94 12.77 25.051 24.35 31.741s25.72 8.946 39.66 5.214c27.87-7.459 44.42-36.117 36.95-63.996l-33.1-123.455z" fill="url(#Z)"/><path d="M1997.67 350.315l-.25 1.69c.12-.567.15-1.134.25-1.69z" fill="url(#Z)"/><path d="M1997.41 351.999c-.51 2.404-1.19 4.792-2.06 7.151.86-2.326 1.54-4.72 2.06-7.151z" fill="url(#Z)"/><path d="M1998.42 344.64c-.12 1.892-.43 3.784-.77 5.669l.77-5.669z" fill="url(#Z)"/><path d="M1837.98 424.218l-29.27 50.7c-14.43 24.993-5.86 56.954 19.13 71.381 25 14.433 56.95 5.871 71.38-19.123l29.22-50.602-19.15-71.455-71.31 19.099z" fill="url(#Z)"/><path d="M1993.14 364.207l-.7 1.351.7-1.351z" fill="url(#Z)"/><path d="M1993.16 364.213l2.21-5.052c-.64 1.732-1.39 3.399-2.21 5.052z" fill="url(#Z)"/><path d="M1899.4 317.836l-61.42 106.382 71.32-19.1-13.56-50.561c-3.42-12.778-1.8-25.727 3.66-36.721z" fill="url(#Z)"/><path d="M1959.83 391.575l-50.54 13.545 19.14 71.456 63.11-109.305.9-1.715c-6.56 12.376-18.01 22.106-32.61 26.019z" fill="url(#Z)"/><path d="M1997.31 329.846l-.62-2.32c-1.7-6.362-4.51-12.137-8.15-17.163-4.17-5.73-9.57-10.692-16.1-14.462l-.03-.013c-24.98-14.427-56.95-5.871-71.38 19.122l-1.63 2.825c-5.46 10.995-7.08 23.943-3.66 36.721l13.56 50.562 50.53-13.545c17.05-4.564 29.85-17.044 35.53-32.422 3.52-9.581 4.07-19.748 1.95-29.305z" fill="url(#Z)"/></g><g class="B D"><path d="M1899.41 317.837l-61.42 106.383 71.31-19.1-13.55-50.561c-3.43-12.778-1.8-25.727 3.66-36.722z" class="C"/><path d="M1959.83 391.57l-50.54 13.545 19.15 71.456 63.1-109.305.9-1.714c-6.56 12.375-18.01 22.105-32.61 26.018z" class="C"/><path d="M1997.31 329.847l-.62-2.321c-1.7-6.361-4.51-12.137-8.15-17.163-4.17-5.73-9.57-10.691-16.1-14.462l-.03-.013c-24.99-14.426-56.95-5.871-71.38 19.122l-1.63 2.825c-5.46 10.995-7.08 23.943-3.66 36.721l13.55 50.562 50.54-13.545c17.05-4.564 29.85-17.044 35.52-32.422 3.53-9.581 4.08-19.748 1.96-29.304z" class="E"/></g><g filter="url(#I)" class="B"><path d="M2079.38 252.939c-27.88 7.459-44.42 36.117-36.95 63.996 3.74 13.937 12.77 25.039 24.35 31.726s25.71 8.951 39.65 5.222l4.33-1.156 61.42-106.388c6.03-12.149 16.72-21.907 30.45-26.42l-123.25 33.02z" fill="url(#a)"/><path d="M2205.58 219.139l-2.94.784c-13.72 4.514-24.42 14.271-30.44 26.42l1.63-2.825c14.43-24.993 46.39-33.552 71.38-19.122l.02.013c6.58 3.797 12.01 8.804 16.19 14.571-4.35-6.027-9.91-11.006-16.23-14.666-11.57-6.662-25.69-8.914-39.61-5.175z" fill="url(#a)"/><path d="M2270.2 258.722a51.83 51.83 0 0 1-1.26 26.579 52.23 52.23 0 0 1-4.61 10.468l-63.11 109.305 1.12 4.166a52.1 52.1 0 0 0 24.35 31.744c11.58 6.687 25.72 8.949 39.65 5.21 27.88-7.455 44.43-36.113 36.95-63.996l-33.09-123.476z" fill="url(#a)"/><path d="M2110.77 352.732l-29.27 50.694c-14.43 24.993-5.86 56.95 19.14 71.38 24.99 14.433 56.95 5.871 71.38-19.122l29.21-50.602-19.15-71.462-71.31 19.112z" fill="url(#a)"/><path d="M2172.19 246.342l-61.42 106.388 71.31-19.112-13.54-50.555c-3.43-12.778-1.81-25.726 3.65-36.721z" fill="url(#a)"/><path d="M2232.61 320.074l-50.54 13.539 19.15 71.462 63.11-109.305c.56-.972 1.02-1.98 1.51-2.972-6.44 12.96-18.14 23.238-33.23 27.276z" fill="url(#a)"/><path d="M2270.1 258.338l-.62-2.305c-1.69-6.314-4.46-12.049-8.07-17.055a52.09 52.09 0 0 0-16.19-14.571l-.02-.013c-24.99-14.43-56.95-5.871-71.38 19.122l-1.63 2.825c-5.46 10.995-7.08 23.943-3.66 36.721l13.54 50.555 50.55-13.538c17.91-4.795 31.14-18.324 36.33-34.772a52.22 52.22 0 0 0 1.15-26.969z" fill="url(#a)"/></g><g class="B D"><path d="M2172.19 246.338l-61.42 106.388 71.31-19.112-13.54-50.555c-3.43-12.778-1.8-25.726 3.65-36.721z" class="C"/><path d="M2232.61 320.075l-50.54 13.539 19.15 71.462 63.11-109.305c.56-.972 1.02-1.981 1.51-2.972-6.44 12.96-18.14 23.238-33.23 27.276z" class="C"/><path d="M2270.1 258.338l-.62-2.305c-1.69-6.313-4.46-12.049-8.07-17.054-4.18-5.767-9.61-10.774-16.19-14.571l-.02-.013c-24.99-14.43-56.95-5.872-71.38 19.122l-1.63 2.824a52.04 52.04 0 0 0-3.66 36.722l13.54 50.555 50.55-13.539c17.91-4.794 31.14-18.323 36.33-34.772a52.22 52.22 0 0 0 1.15-26.969z" class="E"/></g><g filter="url(#J)" class="B"><path d="M1531.45 397.319c-27.87 7.468-44.41 36.12-36.95 63.996 3.73 13.94 12.77 25.039 24.35 31.726s25.71 8.958 39.65 5.222l4.33-1.156 61.43-106.406c6.03-12.145 16.73-21.893 30.45-26.406l-123.26 33.024z" fill="url(#b)"/><path d="M1657.62 363.508l-2.92.782c-13.72 4.513-24.42 14.262-30.45 26.407l1.62-2.807c14.43-24.988 46.39-33.552 71.38-19.122l.03.013c6.63 3.83 12.11 8.894 16.29 14.741-4.36-6.111-9.96-11.147-16.34-14.836a52.06 52.06 0 0 0-39.61-5.178z" fill="url(#b)"/><path d="M1722.27 403.108c2.07 9.676 1.3 19.371-1.79 28.151l-.01.026v.006a52.64 52.64 0 0 1-4.07 8.864l-63.11 109.305 1.11 4.171a52.11 52.11 0 0 0 24.36 31.738c11.58 6.684 25.71 8.955 39.65 5.217 27.87-7.465 44.42-36.117 36.95-64.002l-33.09-123.476z" fill="url(#b)"/><path d="M1562.81 497.104l-29.26 50.694c-14.43 24.993-5.87 56.956 19.12 71.386 25 14.433 56.96 5.865 71.39-19.128l29.22-50.602-19.15-71.468-71.32 19.118z" fill="url(#b)"/><path d="M1624.25 390.699l-61.43 106.405 71.31-19.117-13.55-50.55c-3.42-12.787-1.79-25.747 3.67-36.738z" fill="url(#b)"/><path d="M1684.68 464.458l-50.54 13.536 19.15 71.468 63.11-109.305c.41-.702.74-1.432 1.11-2.136-6.53 12.562-18.06 22.481-32.83 26.437z" fill="url(#b)"/><path d="M1720.46 431.28l.01-.027a52.01 52.01 0 0 0 1.67-28.559l-.61-2.287c-1.67-6.244-4.41-11.927-7.96-16.884-4.19-5.847-9.66-10.911-16.3-14.741l-.02-.014c-24.99-14.429-56.95-5.865-71.38 19.122l-1.62 2.808a51.97 51.97 0 0 0-3.67 36.738l13.55 50.55 50.53-13.536c17.32-4.637 30.27-17.448 35.8-33.165v-.005z" fill="url(#b)"/></g><g class="B D"><path d="M1624.25 390.691l-61.44 106.406 71.32-19.118-13.55-50.549c-3.42-12.787-1.8-25.747 3.67-36.739zm60.43 73.763l-50.53 13.536 19.15 71.468 63.1-109.305c.41-.702.74-1.432 1.11-2.136-6.53 12.562-18.06 22.48-32.83 26.437z" class="C"/><path d="M1720.46 431.275l.01-.027a52.11 52.11 0 0 0 1.68-28.56l-.62-2.286c-1.67-6.244-4.4-11.927-7.96-16.884-4.18-5.847-9.66-10.911-16.29-14.741l-.03-.014c-24.99-14.429-56.95-5.865-71.38 19.122l-1.62 2.808c-5.46 10.991-7.09 23.951-3.67 36.738l13.55 50.55 50.53-13.537c17.33-4.636 30.27-17.447 35.8-33.164v-.005z" class="E"/></g><g filter="url(#K)" class="B"><path d="M1604.46 673.12c-27.88 7.459-44.42 36.117-36.95 63.997 3.74 13.937 12.77 25.039 24.35 31.726s25.71 8.951 39.64 5.222l4.34-1.157 61.42-106.388c6.03-12.148 16.72-21.906 30.44-26.419l-123.24 33.019z" fill="url(#c)"/><path d="M1730.66 639.321l-2.94.784c-13.73 4.513-24.42 14.271-30.45 26.419l1.63-2.825c14.43-24.993 46.39-33.552 71.39-19.122l.02.014c6.58 3.796 12.01 8.804 16.19 14.57-4.35-6.026-9.91-11.006-16.23-14.666-11.57-6.662-25.69-8.914-39.61-5.174z" fill="url(#c)"/><path d="M1795.28 678.904a51.83 51.83 0 0 1-1.26 26.579 52.83 52.83 0 0 1-4.61 10.468l-63.11 109.305 1.11 4.165a52.15 52.15 0 0 0 24.36 31.744c11.58 6.687 25.72 8.95 39.65 5.211 27.88-7.455 44.43-36.113 36.95-63.996l-33.09-123.476z" fill="url(#c)"/><path d="M1697.27 666.524l-61.42 106.388 71.31-19.112-13.55-50.555c-3.42-12.778-1.8-25.726 3.66-36.721z" fill="url(#c)"/><path d="M1757.69 740.256l-50.55 13.539 19.16 71.462 63.11-109.305c.56-.972 1.02-1.981 1.5-2.972-6.43 12.96-18.13 23.238-33.22 27.276z" fill="url(#c)"/><path d="M1795.18 678.519l-.62-2.305c-1.69-6.313-4.46-12.048-8.07-17.054a52.09 52.09 0 0 0-16.19-14.571l-.02-.013c-24.99-14.43-56.95-5.871-71.38 19.122l-1.63 2.825c-5.46 10.994-7.09 23.943-3.66 36.721l13.54 50.555 50.55-13.539c17.91-4.794 31.13-18.323 36.33-34.772 2.79-8.889 3.09-18.187 1.15-26.969z" fill="url(#c)"/><path d="M1635.85 772.913l-29.27 50.694c-14.43 24.994-5.86 56.951 19.13 71.381 25 14.433 56.96 5.871 71.39-19.122l29.21-50.602-19.15-71.463-71.31 19.112z" fill="url(#c)"/></g><g class="B D"><path d="M1697.27 666.524l-61.42 106.388 71.3-19.112-13.54-50.555c-3.42-12.778-1.8-25.726 3.66-36.721z" class="C"/><path d="M1757.69 740.257l-50.55 13.539 19.16 71.462 63.1-109.305c.56-.972 1.02-1.98 1.51-2.972-6.44 12.96-18.13 23.238-33.22 27.276z" class="C"/><path d="M1795.17 678.524l-.61-2.305c-1.69-6.313-4.46-12.049-8.07-17.054-4.18-5.767-9.61-10.774-16.19-14.571l-.02-.013c-25-14.43-56.96-5.871-71.39 19.122l-1.63 2.825a51.98 51.98 0 0 0-3.65 36.721l13.54 50.555 50.54-13.539c17.91-4.794 31.14-18.323 36.33-34.772 2.8-8.89 3.1-18.188 1.15-26.969z" class="E"/></g><g filter="url(#L)" class="B"><path d="M1880.66 597.699c-27.87 7.459-44.43 36.129-36.96 64.008a52.13 52.13 0 0 0 24.35 31.717c11.58 6.687 25.72 8.955 39.65 5.231l4.33-1.166 61.43-106.405c6.03-12.145 16.74-21.899 30.46-26.409l-123.26 33.024z" fill="url(#d)"/><path d="M2006.83 563.887l-2.92.783c-13.73 4.51-24.43 14.264-30.46 26.409l1.63-2.813c14.42-24.993 46.39-33.549 71.38-19.119a52.12 52.12 0 0 1 14.88 12.84c-4.13-5.248-9.2-9.624-14.9-12.922-11.57-6.665-25.69-8.923-39.61-5.178z" fill="url(#d)"/><path d="M2071.47 603.46a52.05 52.05 0 0 1-1.21 26.465c-1.13 3.62-2.67 7.174-4.65 10.603l-63.12 109.317 1.12 4.165c3.74 13.937 12.77 25.049 24.36 31.739 11.58 6.686 25.71 8.951 39.65 5.216 27.87-7.459 44.42-36.128 36.95-64.008l-33.1-123.497z" fill="url(#d)"/><path d="M2072.53 615.102l.02 1.396c.02-.469-.03-.933-.02-1.396z" fill="url(#d)"/><path d="M2072.56 616.506c-.07 1.833-.29 3.659-.56 5.482l.56-5.482z" fill="url(#d)"/><path d="M2071.85 623.286c-.39 2.233-.92 4.452-1.6 6.643.68-2.165 1.2-4.392 1.6-6.643z" fill="url(#d)"/><path d="M2071.98 621.978l-.14 1.298c.07-.427.08-.864.14-1.298z" fill="url(#d)"/><path d="M1912.02 697.486l-29.27 50.7c-14.43 24.993-5.85 56.943 19.14 71.373 24.99 14.441 56.95 5.882 71.39-19.123l29.21-50.59-19.15-71.474-71.32 19.114z" fill="url(#d)"/><path d="M1973.46 591.08l-61.44 106.405 71.32-19.114-13.55-50.559c-3.42-12.787-1.79-25.734 3.67-36.732z" fill="url(#d)"/><path d="M2033.89 664.832l-50.54 13.543 19.15 71.473 63.11-109.316c.58-1.007 1.05-2.051 1.55-3.077-6.43 13.011-18.14 23.329-33.27 27.377z" fill="url(#d)"/><path d="M2071.31 602.895l-.57-2.112c-1.31-4.879-3.26-9.414-5.75-13.533-4.4-7.262-10.65-13.555-18.53-18.102-24.99-14.43-56.96-5.875-71.39 19.119l-1.62 2.813c-5.45 10.998-7.09 23.946-3.66 36.733l13.54 50.558 50.54-13.542c17.96-4.807 31.22-18.396 36.37-34.903a52.12 52.12 0 0 0 1.07-27.031z" fill="url(#d)"/></g><g class="B D"><path d="M1973.46 591.075l-61.44 106.405 71.32-19.114-13.55-50.558c-3.42-12.787-1.78-25.735 3.67-36.733zm60.43 73.75l-50.54 13.542 19.14 71.474 63.12-109.317c.58-1.007 1.04-2.051 1.55-3.077-6.43 13.011-18.15 23.33-33.27 27.378z" class="C"/><path d="M2071.31 602.896l-.57-2.112c-1.31-4.879-3.26-9.413-5.75-13.533-4.4-7.262-10.65-13.554-18.53-18.102-24.99-14.43-56.96-5.874-71.39 19.119l-1.62 2.814c-5.45 10.998-7.09 23.945-3.66 36.732l13.54 50.559 50.54-13.543c17.96-4.806 31.22-18.396 36.37-34.903 2.79-8.911 3.06-18.235 1.07-27.031z" class="E"/></g><g filter="url(#M)" class="B"><path d="M1528.22 2234.66c-27.87 7.47-44.41 36.12-36.95 64 3.73 13.93 12.77 25.04 24.35 31.72 11.58 6.69 25.72 8.96 39.65 5.23l4.33-1.16 61.44-106.41c6.03-12.14 16.73-21.89 30.45-26.4l-123.27 33.02z" fill="url(#e)"/><path d="M1654.32 2200.8l-2.82.84 2.92-.78c13.92-3.74 28.04-1.49 39.61 5.17l-.05-.02c-11.58-6.69-25.72-8.95-39.66-5.21z" fill="url(#e)"/><path d="M1654.4 2200.85l-2.93.78c-13.72 4.51-24.42 14.26-30.45 26.41l1.62-2.81c14.43-24.99 46.39-33.55 71.39-19.12l.02.01c6.56 3.79 12 8.79 16.18 14.57a52.39 52.39 0 0 0-16.23-14.67c-11.57-6.66-25.69-8.91-39.6-5.17z" fill="url(#e)"/><path d="M1719.05 2240.45c2.08 9.75 1.28 19.52-1.86 28.36a53.84 53.84 0 0 1-4.01 8.68l-63.12 109.31 1.12 4.16c3.74 13.95 12.77 25.06 24.36 31.75 11.58 6.68 25.71 8.95 39.65 5.21 27.87-7.46 44.42-36.11 36.95-64l-33.09-123.47z" fill="url(#e)"/><path d="M1559.59 2334.44l-29.27 50.7c-14.43 24.99-5.86 56.95 19.13 71.38 25 14.44 56.96 5.87 71.39-19.13l29.21-50.59-19.15-71.47-71.31 19.11z" fill="url(#e)"/><path d="M1621.03 2228.04l-61.43 106.4 71.31-19.11-13.55-50.55a52.08 52.08 0 0 1 3.67-36.74z" fill="url(#e)"/><path d="M1681.45 2301.8l-50.54 13.54 19.15 71.47 63.11-109.31 1.08-2.09c-6.53 12.55-18.06 22.44-32.8 26.39z" fill="url(#e)"/><path d="M1718.93 2240.03l-.61-2.28a52.41 52.41 0 0 0-8.08-17.05c-4.18-5.79-9.62-10.79-16.18-14.58l-.02-.01c-25-14.43-56.96-5.87-71.39 19.12l-1.62 2.81c-5.46 10.99-7.09 23.95-3.66 36.74l13.54 50.55 50.54-13.54c17.25-4.61 30.16-17.35 35.73-32.99 3.35-9.42 3.83-19.39 1.75-28.77z" fill="url(#e)"/></g><g class="B D"><path d="M1621.03 2228.04l-61.43 106.41 71.3-19.11-13.54-50.56a52.08 52.08 0 0 1 3.67-36.74zm60.42 73.75l-50.54 13.55 19.15 71.47 63.11-109.32c.4-.68.72-1.38 1.08-2.08-6.53 12.55-18.06 22.44-32.8 26.38z" class="C"/><path d="M1718.93 2240.04l-.62-2.29c-1.69-6.31-4.47-12.05-8.07-17.05-4.18-5.78-9.62-10.78-16.18-14.57l-.02-.02c-25-14.42-56.96-5.86-71.39 19.13l-1.62 2.8c-5.46 11-7.09 23.96-3.66 36.74l13.54 50.56 50.54-13.54c17.25-4.62 30.16-17.36 35.73-32.99 3.35-9.42 3.83-19.39 1.75-28.77z" class="E"/></g><g filter="url(#N)" class="B"><path d="M1604.77 2507.44c-27.87 7.46-44.41 36.12-36.95 64a52.14 52.14 0 0 0 24.35 31.72c11.59 6.69 25.72 8.96 39.65 5.23l4.34-1.17 61.42-106.38c6.02-12.15 16.72-21.9 30.45-26.41l-123.26 33.01z" fill="url(#f)"/><path d="M1730.96 2473.63l-2.94.79c-13.73 4.51-24.43 14.27-30.45 26.42l1.63-2.83c14.43-24.99 46.39-33.55 71.38-19.12l.02.01c6.53 3.77 11.94 8.74 16.11 14.47-4.34-5.99-9.87-10.93-16.15-14.56-11.57-6.66-25.68-8.92-39.6-5.18z" fill="url(#f)"/><path d="M1795.61 2513.26a51.98 51.98 0 0 1-2.06 28.91 52.36 52.36 0 0 1-3.82 8.11l-63.1 109.31 1.12 4.17c3.73 13.94 12.76 25.05 24.35 31.74a52.15 52.15 0 0 0 39.66 5.21c27.87-7.46 44.42-36.12 36.95-63.99l-33.1-123.46z" fill="url(#f)"/><path d="M1795.83 2533.31l-.24 1.7c.12-.57.14-1.14.24-1.7z" fill="url(#f)"/><path d="M1795.58 2535c-.52 2.4-1.19 4.79-2.06 7.15.86-2.33 1.54-4.72 2.06-7.15z" fill="url(#f)"/><path d="M1796.59 2527.64c-.13 1.89-.44 3.78-.77 5.67l.77-5.67z" fill="url(#f)"/><path d="M1636.14 2607.22l-29.27 50.7c-14.43 24.99-5.85 56.95 19.13 71.38 25 14.43 56.96 5.87 71.39-19.12l29.21-50.61-19.14-71.45-71.32 19.1z" fill="url(#f)"/><path d="M1791.31 2547.21l-.7 1.35.7-1.35z" fill="url(#f)"/><path d="M1791.33 2547.21l2.21-5.05c-.64 1.73-1.39 3.4-2.21 5.05z" fill="url(#f)"/><path d="M1697.57 2500.84l-61.42 106.38 71.31-19.1-13.55-50.56a52.03 52.03 0 0 1 3.66-36.72z" fill="url(#f)"/><path d="M1757.99 2574.57l-50.53 13.55 19.14 71.46 63.11-109.31.9-1.71c-6.57 12.37-18.01 22.1-32.62 26.01z" fill="url(#f)"/><path d="M1795.47 2512.85l-.61-2.32c-1.71-6.37-4.51-12.14-8.15-17.17-4.17-5.73-9.58-10.69-16.11-14.46l-.02-.01c-24.99-14.43-56.95-5.87-71.38 19.12l-1.63 2.83c-5.46 10.99-7.09 23.94-3.66 36.72l13.55 50.56 50.54-13.55c17.05-4.56 29.84-17.04 35.52-32.42 3.52-9.58 4.08-19.75 1.95-29.3z" fill="url(#f)"/></g><g class="B D"><path d="M1697.57 2500.84l-61.42 106.38 71.32-19.1-13.56-50.56a52.03 52.03 0 0 1 3.66-36.72z" class="C"/><path d="M1758 2574.57l-50.54 13.55 19.14 71.45 63.11-109.3.9-1.72c-6.56 12.38-18.01 22.11-32.61 26.02z" class="C"/><path d="M1795.47 2512.85l-.61-2.32c-1.71-6.37-4.51-12.14-8.15-17.17-4.17-5.73-9.58-10.69-16.11-14.46l-.02-.01c-24.99-14.43-56.96-5.87-71.39 19.12l-1.63 2.83a52.03 52.03 0 0 0-3.65 36.72l13.55 50.56 50.53-13.55c17.05-4.56 29.85-17.04 35.53-32.42 3.52-9.58 4.08-19.75 1.95-29.3z" class="E"/></g><g filter="url(#O)" class="B"><path d="M1877.54 2435.94c-27.87 7.46-44.42 36.12-36.95 63.99 3.75 13.94 12.77 25.04 24.36 31.73 11.58 6.69 25.7 8.95 39.64 5.22l4.34-1.15 61.42-106.39c6.02-12.15 16.72-21.91 30.44-26.42l-123.25 33.02z" fill="url(#g)"/><path d="M2003.75 2402.14l-2.95.78c-13.72 4.52-24.41 14.27-30.44 26.42l1.63-2.82c14.43-25 46.39-33.55 71.38-19.12l.03.01c6.57 3.8 12.01 8.8 16.19 14.57-4.36-6.03-9.91-11.01-16.24-14.67-11.56-6.66-25.68-8.91-39.6-5.17z" fill="url(#g)"/><path d="M2068.36 2441.72a51.83 51.83 0 0 1-1.25 26.58c-1.13 3.58-2.66 7.09-4.62 10.47l-63.1 109.3 1.11 4.17a52.13 52.13 0 0 0 24.36 31.74c11.58 6.69 25.72 8.95 39.65 5.21 27.88-7.45 44.42-36.11 36.95-63.99l-33.1-123.48z" fill="url(#g)"/><path d="M1908.94 2535.73l-29.27 50.7c-14.43 24.99-5.86 56.95 19.13 71.38 25 14.43 56.96 5.87 71.38-19.13l29.22-50.6-19.15-71.46-71.31 19.11z" fill="url(#g)"/><path d="M1970.36 2429.34l-61.42 106.39 71.3-19.11-13.54-50.56c-3.42-12.77-1.8-25.72 3.66-36.72z" fill="url(#g)"/><path d="M2030.78 2503.07l-50.55 13.54 19.16 71.47 63.1-109.31c.56-.97 1.02-1.98 1.51-2.97-6.44 12.96-18.13 23.24-33.22 27.27z" fill="url(#g)"/><path d="M2068.26 2441.34l-.61-2.31c-1.69-6.31-4.46-12.05-8.07-17.05-4.18-5.77-9.61-10.78-16.19-14.57l-.02-.02c-25-14.43-56.96-5.87-71.39 19.13l-1.63 2.82a51.98 51.98 0 0 0-3.65 36.72l13.54 50.56 50.54-13.54c17.91-4.8 31.14-18.32 36.33-34.77 2.8-8.89 3.1-18.19 1.15-26.97z" fill="url(#g)"/></g><g class="B D"><path d="M1970.36 2429.34l-61.42 106.39 71.31-19.12-13.55-50.55a52.03 52.03 0 0 1 3.66-36.72z" class="C"/><path d="M2030.78 2503.08l-50.55 13.53 19.16 71.47 63.1-109.31c.57-.97 1.03-1.98 1.51-2.97-6.44 12.96-18.13 23.24-33.22 27.28z" class="C"/><path d="M2068.26 2441.34l-.61-2.31c-1.69-6.31-4.46-12.05-8.07-17.05-4.18-5.77-9.61-10.78-16.19-14.57l-.02-.02c-25-14.43-56.96-5.87-71.38 19.13l-1.64 2.82c-5.45 11-7.08 23.94-3.65 36.72l13.54 50.56 50.54-13.54c17.92-4.8 31.14-18.32 36.34-34.77 2.79-8.89 3.09-18.19 1.14-26.97z" class="E"/></g><g filter="url(#P)" class="B"><path d="M1329.61 2580.32c-27.87 7.47-44.41 36.12-36.94 64 3.73 13.93 12.76 25.03 24.35 31.72 11.57 6.68 25.7 8.96 39.64 5.22l4.34-1.15 61.43-106.41c6.03-12.14 16.73-21.89 30.45-26.41l-123.27 33.03z" fill="url(#h)"/><path d="M1455.79 2546.51l-2.92.78c-13.73 4.51-24.43 14.26-30.46 26.41l1.63-2.81c14.42-24.99 46.39-33.55 71.38-19.12l.02.01a51.82 51.82 0 0 1 16.3 14.74 52.34 52.34 0 0 0-16.34-14.83 52.03 52.03 0 0 0-39.61-5.18z" fill="url(#h)"/><path d="M1520.43 2586.11a51.81 51.81 0 0 1-1.78 28.15l-.01.03h0c-1.06 3.02-2.42 5.99-4.08 8.86l-63.11 109.31 1.12 4.17c3.74 13.94 12.77 25.05 24.36 31.74 11.57 6.68 25.71 8.95 39.64 5.22 27.88-7.47 44.42-36.12 36.96-64.01l-33.1-123.47z" fill="url(#h)"/><path d="M1360.98 2680.1l-29.27 50.7c-14.43 24.99-5.86 56.95 19.13 71.38 25 14.44 56.96 5.87 71.39-19.12l29.21-50.61-19.15-71.46-71.31 19.11z" fill="url(#h)"/><path d="M1422.42 2573.7l-61.44 106.4 71.31-19.11-13.54-50.55c-3.43-12.79-1.8-25.75 3.67-36.74z" fill="url(#h)"/><path d="M1482.85 2647.46l-50.54 13.53 19.15 71.47 63.11-109.3 1.11-2.14c-6.53 12.56-18.07 22.48-32.83 26.44z" fill="url(#h)"/><path d="M1518.63 2614.28v-.03c3.29-9.36 3.75-19.24 1.68-28.56l-.61-2.28c-1.68-6.25-4.41-11.93-7.96-16.89a52.05 52.05 0 0 0-16.3-14.74l-.02-.01c-25-14.43-56.96-5.87-71.39 19.12l-1.62 2.81c-5.46 10.99-7.09 23.95-3.66 36.74l13.54 50.55 50.54-13.54c17.32-4.64 30.26-17.45 35.79-33.16l.01-.01z" fill="url(#h)"/></g><g class="B D"><path d="M1422.41 2573.69l-61.43 106.41 71.31-19.12-13.54-50.55c-3.43-12.79-1.8-25.75 3.66-36.74zm60.44 73.76l-50.54 13.54 19.15 71.47 63.11-109.31 1.11-2.13c-6.53 12.56-18.07 22.48-32.83 26.43z" class="C"/><path d="M1518.63 2614.27l.01-.02c3.28-9.37 3.74-19.25 1.67-28.56l-.61-2.29c-1.67-6.24-4.41-11.92-7.96-16.88a51.82 51.82 0 0 0-16.3-14.74l-.02-.02c-24.99-14.43-56.96-5.86-71.38 19.13l-1.62 2.8c-5.47 10.99-7.1 23.95-3.67 36.74l13.54 50.55 50.54-13.54c17.32-4.63 30.26-17.44 35.79-33.16l.01-.01z" class="E"/></g><g filter="url(#Q)" class="B"><path d="M1402.62 2856.12c-27.87 7.46-44.42 36.12-36.95 64a52.14 52.14 0 0 0 64 36.95l4.33-1.16 61.43-106.39c6.02-12.15 16.72-21.91 30.44-26.42l-123.25 33.02z" fill="url(#i)"/><path d="M1528.83 2822.32l-2.95.79c-13.72 4.51-24.42 14.27-30.44 26.41l1.63-2.82c14.43-24.99 46.39-33.55 71.38-19.12l.03.01c6.57 3.8 12 8.81 16.19 14.57-4.36-6.02-9.91-11-16.24-14.66a52 52 0 0 0-39.6-5.18z" fill="url(#i)"/><path d="M1593.44 2861.9a51.83 51.83 0 0 1-1.25 26.58c-1.13 3.58-2.66 7.09-4.62 10.47l-63.11 109.31 1.12 4.16a52.15 52.15 0 0 0 24.36 31.75 52.13 52.13 0 0 0 39.65 5.21c27.88-7.46 44.42-36.12 36.95-64l-33.1-123.48z" fill="url(#i)"/><path d="M1495.44 2849.52l-61.43 106.39 71.31-19.11-13.54-50.55c-3.42-12.78-1.8-25.73 3.66-36.73z" fill="url(#i)"/><path d="M1555.86 2923.26l-50.55 13.54 19.15 71.46 63.11-109.31c.56-.97 1.02-1.98 1.51-2.97-6.44 12.96-18.13 23.24-33.22 27.28z" fill="url(#i)"/><path d="M1593.34 2861.52l-.62-2.31a52.16 52.16 0 0 0-8.06-17.05c-4.18-5.77-9.62-10.77-16.19-14.57l-.03-.01c-24.99-14.43-56.95-5.87-71.38 19.12l-1.63 2.82c-5.46 11-7.08 23.95-3.66 36.72l13.55 50.56 50.54-13.54c17.91-4.79 31.14-18.32 36.33-34.77 2.8-8.89 3.1-18.19 1.15-26.97z" fill="url(#i)"/><path d="M1434.02 2955.91l-29.27 50.7c-14.43 24.99-5.86 56.95 19.13 71.38 25 14.43 56.95 5.87 71.38-19.12l29.22-50.61-19.15-71.46-71.31 19.11z" fill="url(#i)"/></g><g class="B D"><path d="M1495.44 2849.52l-61.43 106.39 71.31-19.11-13.54-50.56c-3.43-12.77-1.8-25.72 3.66-36.72z" class="C"/><path d="M1555.85 2923.26l-50.54 13.54 19.15 71.46 63.11-109.31c.56-.97 1.02-1.98 1.51-2.97-6.44 12.96-18.14 23.24-33.23 27.28z" class="C"/><path d="M1593.34 2861.52l-.62-2.3c-1.69-6.31-4.46-12.05-8.07-17.05-4.18-5.77-9.61-10.78-16.18-14.58l-.03-.01c-24.99-14.43-56.95-5.87-71.38 19.12l-1.63 2.83a52.03 52.03 0 0 0-3.66 36.72l13.54 50.55 50.55-13.53c17.91-4.8 31.14-18.33 36.33-34.78a52.22 52.22 0 0 0 1.15-26.97z" class="E"/></g><g filter="url(#R)" class="B"><path d="M1678.82 2780.7c-27.87 7.46-44.42 36.13-36.95 64.01 3.73 13.92 12.77 25.03 24.35 31.71 11.58 6.69 25.71 8.96 39.64 5.24l4.34-1.17 61.43-106.41c6.03-12.14 16.73-21.9 30.46-26.41l-123.27 33.03z" fill="url(#j)"/><path d="M1805 2746.89l-2.92.78c-13.73 4.51-24.43 14.26-30.46 26.41l1.62-2.81c14.43-25 46.4-33.55 71.39-19.12 5.9 3.41 10.89 7.79 14.88 12.84-4.14-5.25-9.2-9.63-14.9-12.92-11.57-6.67-25.69-8.93-39.61-5.18z" fill="url(#j)"/><path d="M1869.63 2786.46c1.95 9.06 1.4 18.14-1.21 26.47-1.13 3.62-2.67 7.17-4.65 10.6l-63.11 109.31 1.12 4.17c3.74 13.94 12.77 25.05 24.35 31.74 11.59 6.69 25.71 8.95 39.65 5.22 27.88-7.46 44.43-36.13 36.96-64.01l-33.11-123.5z" fill="url(#j)"/><path d="M1870.7 2798.1l.01 1.4c.03-.47-.02-.93-.01-1.4z" fill="url(#j)"/><path d="M1870.73 2799.51c-.07 1.83-.3 3.65-.57 5.48.28-1.81.49-3.63.57-5.48z" fill="url(#j)"/><path d="M1870.01 2806.29a51.67 51.67 0 0 1-1.59 6.64c.67-2.17 1.2-4.39 1.59-6.64z" fill="url(#j)"/><path d="M1870.15 2804.98l-.15 1.3.15-1.3z" fill="url(#j)"/><path d="M1710.19 2880.49l-29.27 50.7c-14.43 24.99-5.85 56.94 19.14 71.37 24.99 14.44 56.95 5.88 71.38-19.12l29.21-50.59-19.15-71.48-71.31 19.12z" fill="url(#j)"/><path d="M1771.62 2774.08l-61.43 106.4 71.32-19.11-13.55-50.56c-3.43-12.78-1.79-25.73 3.66-36.73z" fill="url(#j)"/><path d="M1832.06 2847.83l-50.54 13.54 19.14 71.48 63.12-109.32c.58-1.01 1.04-2.05 1.55-3.08-6.43 13.02-18.15 23.33-33.27 27.38z" fill="url(#j)"/><path d="M1869.48 2785.9l-.58-2.12c-1.3-4.88-3.25-9.41-5.74-13.53-4.41-7.26-10.65-13.55-18.53-18.1-24.99-14.43-56.96-5.88-71.39 19.12l-1.62 2.81c-5.46 11-7.09 23.95-3.67 36.73l13.55 50.56 50.54-13.54c17.96-4.81 31.21-18.4 36.37-34.9 2.78-8.92 3.05-18.24 1.07-27.03z" fill="url(#j)"/></g><g class="B D"><path d="M1771.62 2774.08l-61.43 106.4 71.32-19.11-13.55-50.56c-3.43-12.79-1.79-25.74 3.66-36.73z" class="C"/><path d="M1832.05 2847.82l-50.54 13.55 19.15 71.47 63.11-109.32c.58-1 1.05-2.05 1.56-3.07-6.43 13.01-18.15 23.33-33.28 27.37z" class="C"/><path d="M1869.48 2785.9l-.58-2.12c-1.3-4.87-3.25-9.41-5.74-13.53-4.41-7.26-10.65-13.55-18.53-18.1-24.99-14.43-56.96-5.88-71.39 19.12l-1.62 2.81c-5.46 11-7.09 23.95-3.67 36.73l13.55 50.56 50.54-13.54c17.96-4.81 31.21-18.4 36.37-34.9 2.78-8.91 3.06-18.24 1.07-27.03z" class="E"/></g><defs><filter id="A" x="193.855" y="870.525" width="343.526" height="343.606" filterUnits="userSpaceOnUse" class="F"><feFlood result="A" class="G"/><feColorMatrix in="SourceAlpha" values="0 0 0 0 0 0 0 0 0 0 0 0 0 0 0 0 0 0 127 0"/><feOffset dy="27.3459"/><feGaussianBlur stdDeviation="21.41"/><feColorMatrix values="0 0 0 0 0.25098 0 0 0 0 0.815686 0 0 0 0 0.647059 0 0 0 0.3 0"/><feBlend in2="A"/><feBlend in="SourceGraphic"/></filter><filter id="B" x="268.504" y="1136.58" width="343.542" height="343.553" filterUnits="userSpaceOnUse" class="F"><feFlood result="A" class="G"/><feColorMatrix in="SourceAlpha" values="0 0 0 0 0 0 0 0 0 0 0 0 0 0 0 0 0 0 127 0"/><feOffset dy="27.3459"/><feGaussianBlur stdDeviation="21.41"/><feColorMatrix values="0 0 0 0 0.388235 0 0 0 0 0.352941 0 0 0 0 0.890196 0 0 0 0.3 0"/><feBlend in2="A"/><feBlend in="SourceGraphic"/></filter><filter id="C" x="534.501" y="1066.86" width="343.528" height="343.555" filterUnits="userSpaceOnUse" class="F"><feFlood result="A" class="G"/><feColorMatrix in="SourceAlpha" values="0 0 0 0 0 0 0 0 0 0 0 0 0 0 0 0 0 0 127 0"/><feOffset dy="27.3459"/><feGaussianBlur stdDeviation="21.41"/><feColorMatrix values="0 0 0 0 0.698039 0 0 0 0 0.360784 0 0 0 0 0.827451 0 0 0 0.3 0"/><feBlend in2="A"/><feBlend in="SourceGraphic"/></filter><filter id="D" x=".179" y="1207.65" width="343.52" height="343.561" filterUnits="userSpaceOnUse" class="F"><feFlood result="A" class="G"/><feColorMatrix in="SourceAlpha" values="0 0 0 0 0 0 0 0 0 0 0 0 0 0 0 0 0 0 127 0"/><feOffset dy="27.3459"/><feGaussianBlur stdDeviation="21.41"/><feColorMatrix values="0 0 0 0 0.980392 0 0 0 0 0.764706 0 0 0 0 0.533333 0 0 0 0.3 0"/><feBlend in2="A"/><feBlend in="SourceGraphic"/></filter><filter id="E" x="71.372" y="1476.61" width="343.528" height="343.555" filterUnits="userSpaceOnUse" class="F"><feFlood result="A" class="G"/><feColorMatrix in="SourceAlpha" values="0 0 0 0 0 0 0 0 0 0 0 0 0 0 0 0 0 0 127 0"/><feOffset dy="27.3459"/><feGaussianBlur stdDeviation="21.41"/><feColorMatrix values="0 0 0 0 0.984314 0 0 0 0 0.384314 0 0 0 0 0.552941 0 0 0 0.3 0"/><feBlend in2="A"/><feBlend in="SourceGraphic"/></filter><filter id="F" x="340.71" y="1403.05" width="343.531" height="343.568" filterUnits="userSpaceOnUse" class="F"><feFlood result="A" class="G"/><feColorMatrix in="SourceAlpha" values="0 0 0 0 0 0 0 0 0 0 0 0 0 0 0 0 0 0 127 0"/><feOffset dy="27.3459"/><feGaussianBlur stdDeviation="21.41"/><feColorMatrix values="0 0 0 0 0.235294 0 0 0 0 0.694118 0 0 0 0 0.886275 0 0 0 0.3 0"/><feBlend in2="A"/><feBlend in="SourceGraphic"/></filter><filter id="G" x="1648.49" y=".525" width="350.093" height="350.175" filterUnits="userSpaceOnUse" class="F"><feFlood result="A" class="G"/><feColorMatrix in="SourceAlpha" values="0 0 0 0 0 0 0 0 0 0 0 0 0 0 0 0 0 0 127 0"/><feOffset dy="27.3459"/><feGaussianBlur stdDeviation="21.41"/><feColorMatrix values="0 0 0 0 0.25098 0 0 0 0 0.815686 0 0 0 0 0.647059 0 0 0 0.3 0"/><feBlend in2="A"/><feBlend in="SourceGraphic"/></filter><filter id="H" x="1725.04" y="273.358" width="350.109" height="350.12" filterUnits="userSpaceOnUse" class="F"><feFlood result="A" class="G"/><feColorMatrix in="SourceAlpha" values="0 0 0 0 0 0 0 0 0 0 0 0 0 0 0 0 0 0 127 0"/><feOffset dy="27.3459"/><feGaussianBlur stdDeviation="21.41"/><feColorMatrix values="0 0 0 0 0.388235 0 0 0 0 0.352941 0 0 0 0 0.890196 0 0 0 0.3 0"/><feBlend in2="A"/><feBlend in="SourceGraphic"/></filter><filter id="I" x="1997.81" y="201.863" width="350.095" height="350.122" filterUnits="userSpaceOnUse" class="F"><feFlood result="A" class="G"/><feColorMatrix in="SourceAlpha" values="0 0 0 0 0 0 0 0 0 0 0 0 0 0 0 0 0 0 127 0"/><feOffset dy="27.3459"/><feGaussianBlur stdDeviation="21.41"/><feColorMatrix values="0 0 0 0 0.698039 0 0 0 0 0.360784 0 0 0 0 0.827451 0 0 0 0.3 0"/><feBlend in2="A"/><feBlend in="SourceGraphic"/></filter><filter id="J" x="1449.89" y="346.233" width="350.086" height="350.129" filterUnits="userSpaceOnUse" class="F"><feFlood result="A" class="G"/><feColorMatrix in="SourceAlpha" values="0 0 0 0 0 0 0 0 0 0 0 0 0 0 0 0 0 0 127 0"/><feOffset dy="27.3459"/><feGaussianBlur stdDeviation="21.41"/><feColorMatrix values="0 0 0 0 0.980392 0 0 0 0 0.764706 0 0 0 0 0.533333 0 0 0 0.3 0"/><feBlend in2="A"/><feBlend in="SourceGraphic"/></filter><filter id="K" x="1522.89" y="622.044" width="350.095" height="350.122" filterUnits="userSpaceOnUse" class="F"><feFlood result="A" class="G"/><feColorMatrix in="SourceAlpha" values="0 0 0 0 0 0 0 0 0 0 0 0 0 0 0 0 0 0 127 0"/><feOffset dy="27.3459"/><feGaussianBlur stdDeviation="21.41"/><feColorMatrix values="0 0 0 0 0.984314 0 0 0 0 0.384314 0 0 0 0 0.552941 0 0 0 0.3 0"/><feBlend in2="A"/><feBlend in="SourceGraphic"/></filter><filter id="L" x="1799.09" y="546.608" width="350.098" height="350.135" filterUnits="userSpaceOnUse" class="F"><feFlood result="A" class="G"/><feColorMatrix in="SourceAlpha" values="0 0 0 0 0 0 0 0 0 0 0 0 0 0 0 0 0 0 127 0"/><feOffset dy="27.3459"/><feGaussianBlur stdDeviation="21.41"/><feColorMatrix values="0 0 0 0 0.235294 0 0 0 0 0.694118 0 0 0 0 0.886275 0 0 0 0.3 0"/><feBlend in2="A"/><feBlend in="SourceGraphic"/></filter><filter id="M" x="1446.66" y="2183.53" width="350.093" height="350.175" filterUnits="userSpaceOnUse" class="F"><feFlood result="A" class="G"/><feColorMatrix in="SourceAlpha" values="0 0 0 0 0 0 0 0 0 0 0 0 0 0 0 0 0 0 127 0"/><feOffset dy="27.3459"/><feGaussianBlur stdDeviation="21.41"/><feColorMatrix values="0 0 0 0 0.25098 0 0 0 0 0.815686 0 0 0 0 0.647059 0 0 0 0.3 0"/><feBlend in2="A"/><feBlend in="SourceGraphic"/></filter><filter id="N" x="1523.21" y="2456.36" width="350.109" height="350.12" filterUnits="userSpaceOnUse" class="F"><feFlood result="A" class="G"/><feColorMatrix in="SourceAlpha" values="0 0 0 0 0 0 0 0 0 0 0 0 0 0 0 0 0 0 127 0"/><feOffset dy="27.3459"/><feGaussianBlur stdDeviation="21.41"/><feColorMatrix values="0 0 0 0 0.388235 0 0 0 0 0.352941 0 0 0 0 0.890196 0 0 0 0.3 0"/><feBlend in2="A"/><feBlend in="SourceGraphic"/></filter><filter id="O" x="1795.98" y="2384.86" width="350.095" height="350.122" filterUnits="userSpaceOnUse" class="F"><feFlood result="A" class="G"/><feColorMatrix in="SourceAlpha" values="0 0 0 0 0 0 0 0 0 0 0 0 0 0 0 0 0 0 127 0"/><feOffset dy="27.3459"/><feGaussianBlur stdDeviation="21.41"/><feColorMatrix values="0 0 0 0 0.698039 0 0 0 0 0.360784 0 0 0 0 0.827451 0 0 0 0.3 0"/><feBlend in2="A"/><feBlend in="SourceGraphic"/></filter><filter id="P" x="1248.05" y="2529.23" width="350.086" height="350.129" filterUnits="userSpaceOnUse" class="F"><feFlood result="A" class="G"/><feColorMatrix in="SourceAlpha" values="0 0 0 0 0 0 0 0 0 0 0 0 0 0 0 0 0 0 127 0"/><feOffset dy="27.3459"/><feGaussianBlur stdDeviation="21.41"/><feColorMatrix values="0 0 0 0 0.980392 0 0 0 0 0.764706 0 0 0 0 0.533333 0 0 0 0.3 0"/><feBlend in2="A"/><feBlend in="SourceGraphic"/></filter><filter id="Q" x="1321.06" y="2805.04" width="350.095" height="350.122" filterUnits="userSpaceOnUse" class="F"><feFlood result="A" class="G"/><feColorMatrix in="SourceAlpha" values="0 0 0 0 0 0 0 0 0 0 0 0 0 0 0 0 0 0 127 0"/><feOffset dy="27.3459"/><feGaussianBlur stdDeviation="21.41"/><feColorMatrix values="0 0 0 0 0.984314 0 0 0 0 0.384314 0 0 0 0 0.552941 0 0 0 0.3 0"/><feBlend in2="A"/><feBlend in="SourceGraphic"/></filter><filter id="R" x="1597.25" y="2729.61" width="350.098" height="350.135" filterUnits="userSpaceOnUse" class="F"><feFlood result="A" class="G"/><feColorMatrix in="SourceAlpha" values="0 0 0 0 0 0 0 0 0 0 0 0 0 0 0 0 0 0 127 0"/><feOffset dy="27.3459"/><feGaussianBlur stdDeviation="21.41"/><feColorMatrix values="0 0 0 0 0.235294 0 0 0 0 0.694118 0 0 0 0 0.886275 0 0 0 0.3 0"/><feBlend in2="A"/><feBlend in="SourceGraphic"/></filter><linearGradient id="S" x1="236.676" y1="932.434" x2="494.607" y2="1097.46" xlink:href="#m"><stop stop-color="#43e695"/><stop offset="1" stop-color="#00b884"/></linearGradient><linearGradient id="T" x1="311.325" y1="1198.48" x2="569.232" y2="1363.54" xlink:href="#m"><stop stop-color="#c54aff"/><stop offset="1" stop-color="#635ae3"/></linearGradient><linearGradient id="U" x1="577.322" y1="1128.76" x2="835.224" y2="1293.8" xlink:href="#m"><stop stop-color="#f030c1"/><stop offset="1" stop-color="#ad60ea"/></linearGradient><linearGradient id="V" x1="43" y1="1269.55" x2="300.903" y2="1434.58" xlink:href="#m"><stop stop-color="#ffc800"/><stop offset="1" stop-color="#f38181"/></linearGradient><linearGradient id="W" x1="372.079" y1="1703.58" x2="114.177" y2="1538.54" xlink:href="#m"><stop stop-color="#ff7676"/><stop offset="1" stop-color="#df2482"/></linearGradient><linearGradient id="X" x1="387.255" y1="1464.95" x2="641.441" y2="1629.99" xlink:href="#m"><stop stop-color="#17ead9"/><stop offset="1" stop-color="#6078ea"/></linearGradient><linearGradient id="Y" x1="1691.32" y1="63.616" x2="1955.81" y2="232.843" xlink:href="#m"><stop stop-color="#43e695"/><stop offset="1" stop-color="#00b884"/></linearGradient><linearGradient id="Z" x1="1767.87" y1="336.439" x2="2032.34" y2="505.695" xlink:href="#m"><stop stop-color="#c54aff"/><stop offset="1" stop-color="#635ae3"/></linearGradient><linearGradient id="a" x1="2040.64" y1="264.944" x2="2305.1" y2="434.187" xlink:href="#m"><stop stop-color="#f030c1"/><stop offset="1" stop-color="#ad60ea"/></linearGradient><linearGradient id="b" x1="1492.71" y1="409.315" x2="1757.18" y2="578.549" xlink:href="#m"><stop stop-color="#ffc800"/><stop offset="1" stop-color="#f38181"/></linearGradient><linearGradient id="c" x1="1830.17" y1="854.393" x2="1565.7" y2="685.151" xlink:href="#m"><stop stop-color="#ff7676"/><stop offset="1" stop-color="#df2482"/></linearGradient><linearGradient id="d" x1="1845.73" y1="609.692" x2="2106.39" y2="778.934" xlink:href="#m"><stop stop-color="#17ead9"/><stop offset="1" stop-color="#6078ea"/></linearGradient><linearGradient id="e" x1="1489.48" y1="2246.62" x2="1753.98" y2="2415.84" xlink:href="#m"><stop stop-color="#43e695"/><stop offset="1" stop-color="#00b884"/></linearGradient><linearGradient id="f" x1="1566.03" y1="2519.44" x2="1830.51" y2="2688.69" xlink:href="#m"><stop stop-color="#c54aff"/><stop offset="1" stop-color="#635ae3"/></linearGradient><linearGradient id="g" x1="1838.8" y1="2447.94" x2="2103.27" y2="2617.19" xlink:href="#m"><stop stop-color="#f030c1"/><stop offset="1" stop-color="#ad60ea"/></linearGradient><linearGradient id="h" x1="1290.87" y1="2592.32" x2="1555.34" y2="2761.55" xlink:href="#m"><stop stop-color="#ffc800"/><stop offset="1" stop-color="#f38181"/></linearGradient><linearGradient id="i" x1="1628.33" y1="3037.39" x2="1363.86" y2="2868.15" xlink:href="#m"><stop stop-color="#ff7676"/><stop offset="1" stop-color="#df2482"/></linearGradient><linearGradient id="j" x1="1643.89" y1="2792.69" x2="1904.55" y2="2961.93" xlink:href="#m"><stop stop-color="#17ead9"/><stop offset="1" stop-color="#6078ea"/></linearGradient><path id="k" d="M242.484 1520.37l-59.898 103.75 69.537-18.64-13.205-49.3c-3.339-12.46-1.757-25.09 3.566-35.81z"/><path id="l" d="M1822.86 45.038l-61.43 106.405 71.31-19.112-13.54-50.555c-3.43-12.787-1.8-25.747 3.66-36.738z"/><linearGradient id="m" gradientUnits="userSpaceOnUse"/></defs></svg>