<svg width="13px" height="11px" viewBox="0 63 13 11" version="1.1" xmlns="http://www.w3.org/2000/svg" xmlns:xlink="http://www.w3.org/1999/xlink">
  <g id="Page-1" stroke="none" stroke-width="1" fill="none" fill-rule="evenodd" transform="translate(1.000000, 63.000000)">
    <path d="M6.70289321,4.01826941 C6.69646044,4.03710315 5.88359144,6.12521805 5.88359144,6.12521805 C5.86136912,6.18232681 5.80756772,6.21999429 5.74850314,6.21999429 C5.68943856,6.21999429 5.63563716,6.18232681 5.61341484,6.12521805 L4.79996104,4.03649561 C4.74732924,3.8949388 4.72452212,3.7673554 4.72452212,3.63855693 C4.72452212,3.05228085 5.18358843,2.57536196 5.74791834,2.57536196 C6.31224826,2.57536196 6.77131456,3.05228085 6.77131456,3.63855693 C6.77131456,3.7673554 6.74850745,3.8949388 6.70289321,4.01826941 M5.74791834,8.5286462 C5.24850099,8.5286462 4.84148169,8.10640592 4.84148169,7.58756678 C4.84148169,7.06872764 5.24791619,6.64527227 5.74791834,6.64527227 C6.24792049,6.64527227 6.65435499,7.0681201 6.65435499,7.58756678 C6.65435499,8.10640592 6.2473357,8.5286462 5.74791834,8.5286462 M11.1110993,7.22182771 L7.6537745,1.23512877 C7.19997138,0.449579583 6.50581634,0 5.74791834,0 C4.99002034,0 4.29586531,0.449579583 3.84206218,1.23391369 L0.384737358,7.22182771 C-0.074913744,8.01709754 -0.125206358,8.86522335 0.247309865,9.54870583 C0.619241291,10.2327958 1.34556021,10.6252667 2.23913131,10.6252667 L9.25670538,10.6252667 C10.1502765,10.6252667 10.8765954,10.2327958 11.2485268,9.54931337 C11.621043,8.86583089 11.5707504,8.01770508 11.1110993,7.22182771" id="Fill-1" fill="#DB4545"></path>
  </g>
</svg>
