<svg xmlns="http://www.w3.org/2000/svg" xmlns:xlink="http://www.w3.org/1999/xlink" width="1600" height="3156" fill="none" xmlns:v="https://vecta.io/nano"><style><![CDATA[.B{fill-rule:evenodd}.C{opacity:.1}.D{color-interpolation-filters:sRGB}.E{flood-opacity:0}.F{fill:#000}.G{opacity:.2}]]></style><g filter="url(#A)" class="B"><path d="M-9.254 920.776c-27.178 7.282-43.31 35.223-36.031 62.407 3.637 13.59 12.452 24.417 23.746 30.937 11.289 6.52 25.073 8.74 38.661 5.09l4.227-1.12 59.908-103.767c5.88-11.844 16.314-21.351 29.694-25.752L-9.254 920.776z" fill="url(#R)"/><path d="M113.715 887.755l-2.755.818 2.85-.763c13.574-3.647 27.342-1.45 38.626 5.049l-.045-.026c-11.294-6.52-25.08-8.726-38.676-5.078z" fill="url(#R)"/><path d="M113.787 887.801l-2.85.763c-13.38 4.401-23.814 13.908-29.694 25.751l1.581-2.738c14.068-24.367 45.238-32.718 69.611-18.647l.022.013c6.402 3.696 11.703 8.574 15.779 14.211-4.242-5.882-9.66-10.738-15.822-14.304-11.284-6.499-25.053-8.696-38.626-5.049z" fill="url(#R)"/><path d="M176.831 926.418a50.69 50.69 0 0 1-1.813 27.657 51.03 51.03 0 0 1-3.911 8.47l-61.543 106.595 1.091 4.06c3.64 13.6 12.452 24.43 23.752 30.95 11.288 6.52 25.07 8.73 38.667 5.08 27.18-7.27 43.312-35.21 36.031-62.4l-32.274-120.412z" fill="url(#R)"/><path d="M21.338 1018.08l-28.541 49.43c-14.071 24.38-5.72 55.55 18.653 69.62 24.378 14.07 55.542 5.72 69.614-18.66l28.487-49.34-18.675-69.688-69.537 18.638z" fill="url(#R)"/><path d="M81.25 914.317L21.342 1018.08l69.537-18.637-13.205-49.3c-3.341-12.47-1.752-25.108 3.576-35.826z" fill="url(#R)"/><path d="M140.17 986.244L90.885 999.45l18.674 69.69 61.543-106.593 1.048-2.036c-6.362 12.239-17.602 21.886-31.98 25.733z" fill="url(#R)"/><path d="M176.718 926.015l-.598-2.23a50.98 50.98 0 0 0-7.875-16.628 50.66 50.66 0 0 0-15.779-14.211l-.022-.014c-24.373-14.071-55.542-5.719-69.61 18.648l-1.581 2.738c-5.328 10.718-6.917 23.356-3.576 35.826l13.205 49.3 49.285-13.206c16.826-4.499 29.414-16.921 34.843-32.167 3.271-9.191 3.735-18.91 1.707-28.056z" fill="url(#R)"/></g><g class="B F"><path d="M81.25 914.321L21.342 1018.08l69.537-18.633-13.205-49.3c-3.341-12.469-1.752-25.107 3.576-35.826z" class="C"/><path d="M140.17 986.243l-49.285 13.206 18.675 69.691 61.543-106.594 1.048-2.036c-6.363 12.238-17.603 21.885-31.981 25.733z" class="C"/><path d="M176.716 926.021l-.597-2.23c-1.651-6.16-4.363-11.751-7.875-16.629-4.077-5.637-9.377-10.515-15.779-14.211l-.022-.013c-24.373-14.072-55.542-5.72-69.611 18.647l-1.581 2.738c-5.328 10.719-6.917 23.357-3.576 35.826l13.205 49.3 49.285-13.206c16.826-4.499 29.415-16.921 34.843-32.167 3.272-9.19 3.736-18.909 1.707-28.055z" class="G"/></g><g filter="url(#B)" class="B"><path d="M65.395 1186.78c-27.175 7.28-43.31 35.23-36.031 62.41 3.651 13.59 12.452 24.42 23.746 30.94s25.076 8.73 38.667 5.09l4.225-1.13 59.894-103.74c5.875-11.85 16.306-21.37 29.692-25.76l-120.193 32.19z" fill="url(#S)"/><path d="M188.447 1153.81l-2.868.77c-13.386 4.4-23.817 13.92-29.692 25.76l1.591-2.75c14.071-24.37 45.243-32.72 69.61-18.65l.023.01c6.368 3.68 11.638 8.52 15.706 14.11-4.233-5.84-9.627-10.66-15.75-14.2a50.77 50.77 0 0 0-38.62-5.05z" fill="url(#S)"/><path d="M251.491 1192.46a50.59 50.59 0 0 1-2.008 28.18c-.995 2.7-2.231 5.34-3.717 7.92l-61.541 106.59 1.095 4.07c3.642 13.59 12.445 24.42 23.745 30.95 11.294 6.52 25.074 8.72 38.673 5.08 27.18-7.27 43.315-35.22 36.031-62.4l-32.278-120.39z" fill="url(#S)"/><path d="M251.713 1212.01l-.241 1.65c.118-.55.145-1.1.241-1.65z" fill="url(#S)"/><path d="M251.463 1213.66c-.501 2.34-1.157 4.67-2.006 6.97.838-2.27 1.498-4.6 2.006-6.97z" fill="url(#S)"/><path d="M252.451 1206.48c-.123 1.84-.425 3.69-.753 5.53l.753-5.53z" fill="url(#S)"/><path d="M95.989 1284.08l-28.545 49.44c-14.072 24.38-5.711 55.54 18.656 69.61 24.379 14.08 55.539 5.73 69.611-18.65l28.489-49.34-18.666-69.68-69.545 18.62z" fill="url(#S)"/><path d="M247.303 1225.56l-.686 1.32.686-1.32z" fill="url(#S)"/><path d="M247.321 1225.57l2.156-4.93c-.624 1.69-1.36 3.31-2.156 4.93z" fill="url(#S)"/><path d="M155.886 1180.34l-59.894 103.74 69.545-18.62-13.216-49.31c-3.339-12.46-1.757-25.09 3.565-35.81z" fill="url(#S)"/><path d="M214.813 1252.25l-49.279 13.21 18.666 69.68 61.54-106.59.875-1.67c-6.398 12.06-17.562 21.55-31.802 25.37z" fill="url(#S)"/><path d="M251.363 1192.05l-.601-2.26c-1.663-6.2-4.396-11.84-7.947-16.74-4.068-5.58-9.339-10.42-15.707-14.1l-.022-.01c-24.367-14.07-55.539-5.73-69.611 18.65l-1.59 2.75c-5.323 10.72-6.905 23.35-3.566 35.81l13.216 49.31 49.28-13.21c16.626-4.45 29.106-16.62 34.644-31.62 3.434-9.34 3.974-19.26 1.904-28.58z" fill="url(#S)"/></g><g class="B F"><path d="M155.89 1180.34l-59.894 103.74 69.545-18.62-13.217-49.31c-3.338-12.46-1.756-25.09 3.566-35.81z" class="C"/><path d="M214.814 1252.24l-49.279 13.21 18.666 69.68 61.54-106.59.876-1.67c-6.399 12.07-17.563 21.56-31.803 25.37z" class="C"/><path d="M251.362 1192.05l-.602-2.26c-1.662-6.2-4.395-11.83-7.947-16.74-4.067-5.58-9.338-10.42-15.706-14.1l-.022-.01c-24.367-14.07-55.54-5.73-69.611 18.65l-1.591 2.75c-5.322 10.72-6.904 23.35-3.566 35.81l13.217 49.31 49.28-13.21c16.625-4.45 29.105-16.62 34.644-31.62 3.434-9.34 3.974-19.26 1.904-28.58z" class="G"/></g><g filter="url(#C)" class="B"><path d="M331.393 1117.06c-27.18 7.27-43.315 35.22-36.031 62.4 3.652 13.59 12.453 24.42 23.747 30.94s25.07 8.73 38.66 5.09l4.228-1.12 59.898-103.75c5.874-11.85 16.305-21.36 29.686-25.76l-120.188 32.2z" fill="url(#T)"/><path d="M454.466 1084.09l-2.873.77c-13.381 4.4-23.812 13.92-29.686 25.76l1.59-2.75c14.072-24.37 45.238-32.72 69.61-18.65l.023.01a50.97 50.97 0 0 1 15.787 14.21 51.19 51.19 0 0 0-15.831-14.3 50.77 50.77 0 0 0-38.62-5.05z" fill="url(#T)"/><path d="M517.475 1122.7c1.905 8.88 1.355 17.76-1.221 25.91-1.101 3.49-2.598 6.91-4.503 10.21l-61.54 106.59 1.088 4.06c3.654 13.6 12.452 24.44 23.752 30.96 11.294 6.52 25.079 8.73 38.667 5.08 27.186-7.27 43.321-35.21 36.03-62.4l-32.273-120.41z" fill="url(#T)"/><path d="M362.009 1214.37l-28.541 49.44c-14.072 24.37-5.717 55.53 18.656 69.6 24.378 14.08 55.539 5.73 69.611-18.64l28.489-49.35-18.677-69.69-69.538 18.64z" fill="url(#T)"/><path d="M421.904 1110.62l-59.898 103.75 69.538-18.64-13.206-49.3c-3.338-12.46-1.756-25.09 3.566-35.81z" fill="url(#T)"/><path d="M480.823 1182.52l-49.29 13.21 18.677 69.68 61.54-106.59c.548-.94.996-1.93 1.472-2.9-6.279 12.64-17.684 22.67-32.399 26.6z" fill="url(#T)"/><path d="M517.377 1122.32l-.602-2.25c-1.645-6.15-4.348-11.75-7.866-16.63a50.86 50.86 0 0 0-15.788-14.21l-.022-.01c-24.373-14.07-55.539-5.73-69.61 18.65l-1.591 2.75a50.74 50.74 0 0 0-3.566 35.81l13.205 49.3 49.291-13.2c17.467-4.68 30.365-17.87 35.429-33.91a50.9 50.9 0 0 0 1.12-26.3z" fill="url(#T)"/></g><g class="B F"><path d="M421.906 1110.62l-59.898 103.74 69.538-18.63-13.206-49.3c-3.338-12.46-1.756-25.09 3.566-35.81z" class="C"/><path d="M480.826 1182.52l-49.291 13.21 18.678 69.69 61.54-106.6c.547-.94.995-1.93 1.471-2.89-6.279 12.63-17.684 22.66-32.398 26.59z" class="C"/><path d="M517.379 1122.32l-.602-2.25c-1.645-6.15-4.348-11.75-7.867-16.63a50.97 50.97 0 0 0-15.787-14.21l-.022-.01c-24.373-14.07-55.539-5.72-69.611 18.65l-1.59 2.75a50.74 50.74 0 0 0-3.566 35.81l13.205 49.3 49.291-13.2c17.467-4.68 30.365-17.87 35.429-33.91a50.9 50.9 0 0 0 1.12-26.3z" class="G"/></g><g filter="url(#D)" class="B"><path d="M-202.93 1257.85c-27.178 7.28-43.31 35.22-36.031 62.41 3.642 13.59 12.452 24.41 23.746 30.94 11.289 6.51 25.068 8.73 38.661 5.09l4.227-1.13 59.908-103.76c5.88-11.85 16.314-21.35 29.694-25.75l-120.205 32.2z" fill="url(#U)"/><path d="M-79.89 1224.88l-2.85.76c-13.381 4.4-23.814 13.91-29.695 25.75l1.581-2.74c14.068-24.36 45.238-32.71 69.611-18.64l.022.01c6.469 3.74 11.81 8.67 15.894 14.38-4.257-5.96-9.719-10.87-15.937-14.47-11.284-6.5-25.047-8.69-38.626-5.05z" fill="url(#U)"/><path d="M-16.851 1263.5a50.55 50.55 0 0 1-1.74 27.45l-.008.02-.003.01a51.05 51.05 0 0 1-3.973 8.64l-61.54 106.59 1.085 4.07c3.648 13.6 12.455 24.43 23.755 30.95 11.289 6.52 25.076 8.73 38.664 5.09 27.184-7.28 43.316-35.22 36.034-62.41l-32.273-120.41z" fill="url(#U)"/><path d="M-172.342 1355.16l-28.542 49.43c-14.071 24.38-5.72 55.54 18.653 69.62 24.378 14.07 55.542 5.72 69.614-18.66l28.489-49.34-18.674-69.7-69.54 18.65z" fill="url(#U)"/><path d="M-112.433 1251.39l-59.907 103.77 69.54-18.65-13.208-49.29a50.74 50.74 0 0 1 3.575-35.83z" fill="url(#U)"/><path d="M-53.501 1323.32l-49.282 13.2 18.674 69.7 61.54-106.6 1.083-2.08c-6.369 12.25-17.616 21.92-32.015 25.78z" fill="url(#U)"/><path d="M-18.611 1290.97l.008-.03c3.201-9.13 3.655-18.77 1.634-27.85l-.598-2.23c-1.632-6.09-4.297-11.63-7.76-16.46-4.084-5.71-9.425-10.64-15.894-14.38l-.022-.01c-24.373-14.07-55.542-5.72-69.611 18.65l-1.581 2.73c-5.328 10.72-6.916 23.36-3.575 35.83l13.208 49.29 49.282-13.2c16.891-4.52 29.512-17.01 34.905-32.34h.003z" fill="url(#U)"/></g><g filter="url(#E)" class="B"><path d="M-131.735 1526.8c-27.181 7.28-43.316 35.22-36.031 62.41 3.651 13.59 12.452 24.42 23.746 30.94s25.071 8.73 38.661 5.09l4.227-1.13 59.898-103.74c5.875-11.85 16.305-21.37 29.686-25.77l-120.188 32.2z" fill="url(#V)"/><path d="M-8.662 1493.84l-2.873.77c-13.381 4.4-23.812 13.91-29.686 25.76l1.59-2.75c14.072-24.38 45.238-32.72 69.61-18.65l.023.01a50.85 50.85 0 0 1 15.787 14.21c-4.245-5.88-9.663-10.73-15.831-14.3a50.77 50.77 0 0 0-38.62-5.05z" fill="url(#V)"/><path d="M54.347 1532.44a50.59 50.59 0 0 1-1.222 25.92c-1.1 3.49-2.598 6.91-4.502 10.21l-61.54 106.59 1.088 4.06c3.654 13.6 12.451 24.44 23.751 30.96 11.294 6.52 25.079 8.73 38.667 5.08 27.186-7.27 43.321-35.22 36.031-62.41l-32.273-120.41z" fill="url(#V)"/><path d="M-41.224 1520.37l-59.898 103.75 69.537-18.64-13.205-49.3c-3.339-12.46-1.756-25.09 3.566-35.81z" fill="url(#V)"/><path d="M17.695 1592.27l-49.291 13.2 18.677 69.69 61.54-106.59c.547-.95.996-1.93 1.472-2.9-6.279 12.64-17.684 22.66-32.398 26.6z" fill="url(#V)"/><path d="M54.249 1532.07l-.603-2.25c-1.645-6.16-4.348-11.75-7.866-16.63a50.85 50.85 0 0 0-15.787-14.21l-.023-.01c-24.373-14.07-55.539-5.73-69.61 18.64l-1.59 2.76c-5.322 10.72-6.905 23.35-3.566 35.81l13.205 49.3 49.291-13.2c17.467-4.68 30.365-17.87 35.429-33.91 2.723-8.67 3.021-17.74 1.12-26.3z" fill="url(#V)"/><path d="M-101.119 1624.12l-28.542 49.43c-14.071 24.38-5.716 55.54 18.656 69.61 24.379 14.08 55.539 5.73 69.611-18.65l28.49-49.34-18.677-69.69-69.537 18.64z" fill="url(#V)"/></g><g class="B F"><path d="M17.693 1592.27l-49.291 13.21 18.678 69.68 61.54-106.59c.547-.95.996-1.93 1.472-2.9-6.279 12.64-17.684 22.66-32.398 26.6z" class="C"/><path d="M54.247 1532.07l-.603-2.24c-1.645-6.16-4.348-11.75-7.866-16.64a50.82 50.82 0 0 0-15.787-14.2l-.023-.02c-24.373-14.07-55.539-5.72-69.61 18.65l-1.59 2.75c-5.322 10.73-6.905 23.35-3.566 35.81l13.205 49.3 49.291-13.2c17.467-4.67 30.365-17.87 35.429-33.91 2.723-8.67 3.021-17.73 1.12-26.3z" class="G"/></g><g filter="url(#F)" class="B"><path d="M137.608 1453.26c-27.18 7.27-43.322 35.23-36.037 62.41 3.643 13.58 12.449 24.41 23.744 30.93s25.076 8.74 38.663 5.1l4.225-1.13 59.907-103.77c5.881-11.84 16.318-21.35 29.704-25.75l-120.206 32.21z" fill="url(#W)"/><path d="M260.65 1420.28l-2.849.77c-13.387 4.39-23.824 13.91-29.704 25.75l1.584-2.74c14.072-24.38 45.244-32.72 69.616-18.65a51.16 51.16 0 0 1 14.51 12.52 51.26 51.26 0 0 0-14.531-12.6c-11.284-6.5-25.049-8.7-38.626-5.05z" fill="url(#W)"/><path d="M323.679 1458.87c1.899 8.84 1.362 17.69-1.18 25.81-1.103 3.53-2.603 7-4.533 10.34l-61.547 106.6 1.088 4.07c3.652 13.59 12.455 24.42 23.754 30.95 11.295 6.52 25.071 8.72 38.665 5.08 27.18-7.27 43.322-35.23 36.037-62.42l-32.284-120.43z" fill="url(#W)"/><path d="M324.718 1470.23l.014 1.36c.024-.46-.021-.91-.014-1.36z" fill="url(#W)"/><path d="M324.747 1471.6c-.067 1.78-.287 3.56-.551 5.34l.551-5.34z" fill="url(#W)"/><path d="M324.051 1478.21a51.28 51.28 0 0 1-1.556 6.48c.658-2.12 1.171-4.29 1.556-6.48z" fill="url(#W)"/><path d="M324.182 1476.93l-.14 1.27c.069-.42.082-.85.14-1.27z" fill="url(#W)"/><path d="M168.193 1550.56l-28.544 49.45c-14.072 24.37-5.705 55.52 18.668 69.6 24.366 14.08 55.533 5.73 69.611-18.65l28.483-49.34-18.671-69.69-69.547 18.63z" fill="url(#W)"/><path d="M228.103 1446.8l-59.907 103.76 69.546-18.64-13.211-49.3c-3.341-12.47-1.745-25.09 3.572-35.82z" fill="url(#W)"/><path d="M287.036 1518.72l-49.285 13.21 18.671 69.7 61.547-106.61c.567-.98 1.019-2 1.515-3-6.271 12.69-17.698 22.75-32.448 26.7z" fill="url(#W)"/><path d="M323.528 1458.32l-.561-2.06c-1.271-4.76-3.176-9.18-5.599-13.19-4.298-7.09-10.391-13.22-18.072-17.66-24.372-14.07-55.544-5.73-69.616 18.65l-1.584 2.74c-5.317 10.73-6.913 23.35-3.572 35.82l13.211 49.3 49.285-13.2c17.511-4.69 30.436-17.94 35.466-34.04a50.83 50.83 0 0 0 1.042-26.36z" fill="url(#W)"/></g><g class="B F"><path d="M228.104 1446.8l-59.907 103.76 69.546-18.64-13.211-49.3c-3.341-12.47-1.745-25.1 3.572-35.82z" class="C"/><path d="M287.033 1518.71l-49.285 13.21 18.671 69.7 61.547-106.6c.567-.98 1.019-2 1.515-3-6.271 12.68-17.698 22.75-32.448 26.69z" class="C"/><path d="M323.529 1458.32l-.562-2.06a50.89 50.89 0 0 0-5.599-13.19c-4.297-7.08-10.39-13.22-18.071-17.66-24.372-14.07-55.544-5.72-69.616 18.65l-1.584 2.74c-5.317 10.73-6.913 23.35-3.572 35.82l13.211 49.31 49.285-13.21c17.511-4.69 30.436-17.94 35.466-34.04a50.83 50.83 0 0 0 1.042-26.36z" class="G"/></g><g filter="url(#G)" class="B"><path d="M1446.35 51.661c-27.87 7.468-44.42 36.12-36.95 63.996 3.73 13.937 12.77 25.04 24.35 31.726s25.71 8.961 39.65 5.223l4.33-1.157 61.43-106.405c6.03-12.145 16.73-21.894 30.45-26.407l-123.26 33.024z" fill="url(#X)"/><path d="M1572.45 17.799l-2.83.839 2.93-.783c13.91-3.739 28.03-1.487 39.6 5.178l-.04-.026c-11.58-6.687-25.72-8.949-39.66-5.208z" fill="url(#X)"/><path d="M1572.52 17.847l-2.92.783c-13.72 4.513-24.42 14.262-30.45 26.407l1.62-2.808c14.43-24.988 46.39-33.552 71.38-19.122l.03.013c6.56 3.79 12 8.792 16.18 14.573a52.31 52.31 0 0 0-16.23-14.668c-11.57-6.665-25.69-8.917-39.61-5.178z" fill="url(#X)"/><path d="M1637.17 57.447a51.89 51.89 0 0 1-1.86 28.361 51.95 51.95 0 0 1-4.01 8.686l-63.11 109.31 1.12 4.16c3.73 13.946 12.77 25.054 24.36 31.744 11.57 6.684 25.71 8.952 39.65 5.211 27.87-7.459 44.41-36.111 36.95-63.996l-33.1-123.476z" fill="url(#X)"/><path d="M1477.72 151.442l-29.27 50.694c-14.43 24.993-5.87 56.956 19.13 71.386s56.95 5.866 71.38-19.128l29.22-50.596-19.15-71.468-71.31 19.112z" fill="url(#X)"/><path d="M1539.16 45.038l-61.44 106.405 71.31-19.112-13.54-50.555c-3.43-12.787-1.8-25.747 3.67-36.738z" fill="url(#X)"/><use xlink:href="#i" fill="url(#X)"/><path d="M1637.05 57.034l-.61-2.287c-1.69-6.316-4.47-12.05-8.07-17.052-4.18-5.781-9.62-10.783-16.18-14.573l-.03-.013c-24.99-14.43-56.95-5.865-71.38 19.122l-1.62 2.808a52.08 52.08 0 0 0-3.67 36.738l13.54 50.555 50.54-13.542c17.26-4.614 30.17-17.352 35.73-32.986 3.36-9.424 3.83-19.391 1.75-28.77z" fill="url(#X)"/></g><g class="B F"><path d="M1539.16 45.043l-61.44 106.405 71.31-19.112-13.54-50.555a51.97 51.97 0 0 1 3.67-36.738z" class="C"/><use xlink:href="#i" y="-0.002" class="C"/><path d="M1637.05 57.04l-.61-2.287c-1.69-6.316-4.47-12.05-8.08-17.052-4.18-5.781-9.61-10.783-16.18-14.573l-.02-.013c-24.99-14.43-56.95-5.865-71.38 19.122l-1.62 2.808a51.97 51.97 0 0 0-3.67 36.738l13.54 50.555 50.54-13.542c17.26-4.614 30.17-17.352 35.73-32.986 3.36-9.425 3.83-19.391 1.75-28.77z" class="G"/></g><g filter="url(#H)" class="B"><path d="M1522.9 324.441c-27.87 7.462-44.42 36.121-36.95 63.996 3.74 13.938 12.77 25.04 24.35 31.726s25.71 8.955 39.65 5.226l4.33-1.166 61.42-106.382c6.03-12.148 16.72-21.906 30.45-26.416l-123.25 33.016z" fill="url(#Y)"/><path d="M1649.08 290.634l-2.94.788c-13.73 4.51-24.42 14.268-30.45 26.416l1.63-2.825c14.43-24.993 46.4-33.549 71.39-19.122l.02.013c6.53 3.77 11.94 8.732 16.11 14.462-4.34-5.981-9.88-10.924-16.15-14.557-11.57-6.662-25.69-8.914-39.61-5.175z" fill="url(#Y)"/><path d="M1713.73 330.26c2.13 9.953 1.26 19.925-2.06 28.905a52.25 52.25 0 0 1-3.81 8.118l-63.11 109.304 1.13 4.169c3.73 13.94 12.76 25.051 24.35 31.741a52.09 52.09 0 0 0 39.65 5.214c27.88-7.459 44.42-36.117 36.95-63.996l-33.1-123.455z" fill="url(#Y)"/><path d="M1713.96 350.315l-.25 1.69c.12-.567.15-1.134.25-1.69z" fill="url(#Y)"/><path d="M1713.7 351.999c-.51 2.404-1.18 4.792-2.05 7.151.86-2.326 1.53-4.72 2.05-7.151z" fill="url(#Y)"/><path d="M1714.72 344.64c-.13 1.892-.44 3.784-.78 5.669l.78-5.669z" fill="url(#Y)"/><path d="M1554.27 424.218l-29.27 50.7c-14.43 24.993-5.86 56.954 19.13 71.381 25 14.433 56.95 5.871 71.38-19.123l29.22-50.602-19.14-71.455-71.32 19.099z" fill="url(#Y)"/><path d="M1709.44 364.207l-.71 1.351.71-1.351z" fill="url(#Y)"/><path d="M1709.46 364.213l2.21-5.052c-.64 1.732-1.4 3.399-2.21 5.052z" fill="url(#Y)"/><path d="M1615.69 317.836l-61.42 106.382 71.32-19.1-13.55-50.561a51.98 51.98 0 0 1 3.65-36.721z" fill="url(#Y)"/><path d="M1676.12 391.575l-50.53 13.545 19.14 71.456 63.1-109.305.9-1.715c-6.56 12.376-18.01 22.106-32.61 26.019z" fill="url(#Y)"/><path d="M1713.6 329.846l-.62-2.32c-1.7-6.362-4.5-12.137-8.15-17.163-4.17-5.73-9.57-10.692-16.1-14.462l-.02-.013c-24.99-14.427-56.96-5.871-71.39 19.122l-1.63 2.825c-5.46 10.995-7.08 23.943-3.66 36.721l13.56 50.562 50.53-13.545c17.05-4.564 29.85-17.044 35.53-32.422 3.52-9.581 4.07-19.748 1.95-29.305z" fill="url(#Y)"/></g><path d="M1615.7 317.837l-61.42 106.383 71.31-19.1-13.55-50.561a52.04 52.04 0 0 1 3.66-36.722z" class="B C F"/><g filter="url(#I)" class="B"><path d="M1247.74 397.319c-27.87 7.468-44.41 36.12-36.95 63.996 3.74 13.94 12.77 25.039 24.35 31.726s25.71 8.958 39.65 5.222l4.33-1.156 61.44-106.406c6.03-12.145 16.72-21.893 30.45-26.406l-123.27 33.024z" fill="url(#Z)"/><path d="M1373.91 363.508l-2.92.782c-13.72 4.513-24.42 14.262-30.45 26.407l1.62-2.807c14.43-24.988 46.39-33.552 71.38-19.122l.03.013c6.63 3.83 12.11 8.894 16.3 14.741a52.26 52.26 0 0 0-16.35-14.836 52.06 52.06 0 0 0-39.61-5.178z" fill="url(#Z)"/><path d="M1438.56 403.108c2.07 9.676 1.3 19.371-1.79 28.151l-.01.026v.006a52.64 52.64 0 0 1-4.07 8.864l-63.11 109.305 1.11 4.171a52.11 52.11 0 0 0 24.36 31.738c11.58 6.684 25.72 8.955 39.65 5.217 27.88-7.465 44.42-36.117 36.95-64.002l-33.09-123.476z" fill="url(#Z)"/><path d="M1279.11 497.104l-29.27 50.694c-14.43 24.993-5.87 56.956 19.13 71.386s56.95 5.865 71.38-19.128l29.22-50.602-19.15-71.468-71.31 19.118z" fill="url(#Z)"/><path d="M1340.54 390.699l-61.43 106.405 71.31-19.117-13.55-50.55c-3.42-12.787-1.79-25.747 3.67-36.738z" fill="url(#Z)"/><path d="M1400.97 464.458l-50.53 13.536 19.15 71.468 63.1-109.305c.41-.702.74-1.432 1.11-2.136-6.53 12.562-18.06 22.481-32.83 26.437z" fill="url(#Z)"/><path d="M1436.75 431.28l.01-.027c3.28-9.366 3.75-19.247 1.68-28.559l-.62-2.287c-1.67-6.244-4.4-11.927-7.96-16.884-4.18-5.847-9.66-10.911-16.29-14.741l-.03-.014c-24.99-14.429-56.95-5.865-71.38 19.122l-1.62 2.808c-5.46 10.991-7.09 23.951-3.67 36.738l13.55 50.55 50.53-13.536c17.33-4.637 30.27-17.448 35.8-33.165v-.005z" fill="url(#Z)"/></g><g class="B F"><path d="M1340.54 390.691l-61.43 106.406 71.31-19.118-13.55-50.549a52.08 52.08 0 0 1 3.67-36.739zm60.43 73.763l-50.53 13.536 19.15 71.468 63.1-109.305c.41-.702.74-1.432 1.11-2.136-6.53 12.562-18.06 22.48-32.83 26.437z" class="C"/><path d="M1436.75 431.275l.01-.027a52.11 52.11 0 0 0 1.68-28.56l-.62-2.286c-1.67-6.244-4.4-11.927-7.95-16.884-4.19-5.847-9.67-10.911-16.3-14.741l-.02-.014c-25-14.429-56.96-5.865-71.39 19.122l-1.62 2.808c-5.46 10.991-7.09 23.951-3.67 36.738l13.55 50.55 50.54-13.537c17.32-4.636 30.26-17.447 35.79-33.164v-.005z" class="G"/></g><g filter="url(#J)" class="B"><path d="M1320.75 673.121c-27.87 7.459-44.42 36.117-36.95 63.996 3.74 13.937 12.77 25.039 24.35 31.726s25.71 8.952 39.65 5.222l4.33-1.156 61.42-106.388c6.03-12.149 16.72-21.906 30.45-26.42l-123.25 33.02z" fill="url(#a)"/><path d="M1446.95 639.321l-2.94.785c-13.72 4.513-24.42 14.27-30.44 26.419l1.63-2.825c14.43-24.993 46.39-33.552 71.38-19.122l.02.013a52.09 52.09 0 0 1 16.19 14.571c-4.35-6.027-9.91-11.006-16.23-14.666-11.57-6.662-25.69-8.914-39.61-5.175z" fill="url(#a)"/><path d="M1511.57 678.905c1.95 9.106 1.39 18.215-1.25 26.578a52.85 52.85 0 0 1-4.62 10.468l-63.11 109.305 1.12 4.166c3.74 13.946 12.77 25.054 24.35 31.744a52.07 52.07 0 0 0 39.65 5.211c27.88-7.456 44.43-36.114 36.95-63.997l-33.09-123.475z" fill="url(#a)"/><path d="M1413.56 666.524l-61.42 106.389 71.31-19.112-13.54-50.555c-3.43-12.778-1.8-25.727 3.65-36.722z" fill="url(#a)"/><path d="M1473.98 740.257l-50.54 13.538 19.15 71.463 63.11-109.305c.56-.973 1.02-1.981 1.51-2.973-6.44 12.96-18.14 23.238-33.23 27.277z" fill="url(#a)"/><path d="M1511.47 678.52l-.62-2.305c-1.69-6.313-4.46-12.049-8.07-17.055-4.18-5.766-9.61-10.774-16.19-14.57l-.02-.014c-24.99-14.43-56.95-5.871-71.38 19.122l-1.63 2.825c-5.46 10.995-7.08 23.943-3.66 36.721l13.54 50.555 50.55-13.538c17.91-4.795 31.14-18.324 36.33-34.772a52.22 52.22 0 0 0 1.15-26.969z" fill="url(#a)"/><path d="M1352.14 772.914l-29.26 50.694c-14.43 24.993-5.87 56.95 19.13 71.38s56.95 5.871 71.38-19.122l29.21-50.602-19.15-71.462-71.31 19.112z" fill="url(#a)"/></g><g class="B F"><path d="M1413.56 666.523l-61.42 106.389 71.31-19.112-13.55-50.555a52.04 52.04 0 0 1 3.66-36.722z" class="C"/><path d="M1473.98 740.257l-50.55 13.538 19.16 71.463 63.1-109.305c.57-.973 1.03-1.981 1.51-2.973-6.44 12.96-18.13 23.239-33.22 27.277z" class="C"/><path d="M1511.47 678.525l-.62-2.305c-1.69-6.314-4.46-12.049-8.07-17.055a52.09 52.09 0 0 0-16.19-14.571l-.02-.013c-24.99-14.43-56.95-5.871-71.38 19.122l-1.64 2.825c-5.45 10.995-7.08 23.943-3.65 36.721l13.54 50.555 50.55-13.538c17.91-4.795 31.13-18.324 36.33-34.772 2.79-8.89 3.09-18.188 1.15-26.969z" class="G"/></g><g filter="url(#K)" class="B"><path d="M1596.95 597.699c-27.87 7.459-44.43 36.129-36.96 64.008a52.13 52.13 0 0 0 24.35 31.717c11.58 6.687 25.72 8.955 39.65 5.231l4.33-1.166 61.44-106.405c6.03-12.145 16.73-21.899 30.46-26.409l-123.27 33.024z" fill="url(#b)"/><path d="M1723.12 563.887l-2.92.783c-13.72 4.51-24.43 14.264-30.46 26.409l1.63-2.813c14.43-24.993 46.39-33.549 71.39-19.119a52.39 52.39 0 0 1 14.88 12.84 52.47 52.47 0 0 0-14.91-12.922c-11.57-6.665-25.68-8.923-39.61-5.178z" fill="url(#b)"/><path d="M1787.76 603.46a51.83 51.83 0 0 1-1.21 26.465c-1.13 3.62-2.67 7.174-4.65 10.603l-63.11 109.317 1.11 4.165c3.75 13.937 12.77 25.049 24.36 31.739 11.58 6.686 25.71 8.951 39.65 5.216 27.87-7.459 44.42-36.128 36.95-64.008l-33.1-123.497z" fill="url(#b)"/><path d="M1788.82 615.102l.02 1.396c.02-.469-.02-.933-.02-1.396z" fill="url(#b)"/><path d="M1788.85 616.506c-.07 1.833-.29 3.659-.56 5.482l.56-5.482z" fill="url(#b)"/><path d="M1788.14 623.286c-.38 2.233-.91 4.452-1.6 6.643.68-2.165 1.21-4.392 1.6-6.643z" fill="url(#b)"/><path d="M1788.27 621.978l-.14 1.298c.07-.427.09-.864.14-1.298z" fill="url(#b)"/><path d="M1628.31 697.486l-29.27 50.7c-14.43 24.993-5.85 56.943 19.15 71.373 24.98 14.441 56.94 5.882 71.38-19.123l29.21-50.59-19.15-71.474-71.32 19.114z" fill="url(#b)"/><path d="M1689.75 591.08l-61.43 106.405 71.31-19.114-13.54-50.559c-3.43-12.787-1.79-25.734 3.66-36.732z" fill="url(#b)"/><path d="M1750.18 664.832l-50.54 13.543 19.15 71.473 63.11-109.316c.58-1.007 1.05-2.051 1.56-3.077-6.43 13.011-18.15 23.329-33.28 27.377z" fill="url(#b)"/><path d="M1787.6 602.895l-.57-2.112a52.33 52.33 0 0 0-5.74-13.533c-4.41-7.262-10.66-13.555-18.54-18.102-24.99-14.43-56.95-5.875-71.38 19.119l-1.63 2.813c-5.45 10.998-7.09 23.946-3.66 36.733l13.55 50.558 50.54-13.542c17.95-4.807 31.21-18.396 36.36-34.903 2.79-8.912 3.06-18.235 1.07-27.031z" fill="url(#b)"/></g><g filter="url(#L)" class="B"><path d="M1244.51 2234.66c-27.87 7.47-44.41 36.12-36.95 64 3.73 13.93 12.77 25.04 24.36 31.72 11.57 6.69 25.71 8.96 39.64 5.23l4.34-1.16 61.43-106.41c6.03-12.14 16.73-21.89 30.45-26.4l-123.27 33.02z" fill="url(#c)"/><path d="M1370.61 2200.8l-2.82.84 2.92-.78c13.92-3.74 28.04-1.49 39.61 5.17l-.05-.02a52.06 52.06 0 0 0-39.66-5.21z" fill="url(#c)"/><path d="M1370.69 2200.85l-2.92.78c-13.73 4.51-24.43 14.26-30.46 26.41l1.63-2.81c14.42-24.99 46.39-33.55 71.38-19.12l.02.01c6.57 3.79 12 8.79 16.18 14.57-4.35-6.03-9.9-11.01-16.22-14.67-11.57-6.66-25.69-8.91-39.61-5.17z" fill="url(#c)"/><path d="M1435.34 2240.45c2.08 9.75 1.28 19.52-1.86 28.36-1.06 2.96-2.38 5.86-4.01 8.68l-63.11 109.31 1.12 4.16c3.73 13.95 12.76 25.06 24.35 31.75 11.58 6.68 25.71 8.95 39.65 5.21 27.88-7.46 44.42-36.11 36.95-64l-33.09-123.47z" fill="url(#c)"/><path d="M1275.88 2334.44l-29.26 50.7c-14.43 24.99-5.87 56.95 19.12 71.38 25 14.44 56.96 5.87 71.39-19.13l29.21-50.59-19.15-71.47-71.31 19.11z" fill="url(#c)"/><path d="M1337.32 2228.04l-61.43 106.4 71.31-19.11-13.54-50.55c-3.43-12.79-1.8-25.75 3.66-36.74z" fill="url(#c)"/><path d="M1397.74 2301.8l-50.54 13.54 19.15 71.47 63.11-109.31 1.08-2.09c-6.53 12.55-18.05 22.44-32.8 26.39z" fill="url(#c)"/><path d="M1435.22 2240.03l-.61-2.28c-1.69-6.32-4.48-12.05-8.08-17.05a51.81 51.81 0 0 0-16.18-14.58l-.02-.01c-24.99-14.43-56.96-5.87-71.38 19.12l-1.62 2.81c-5.47 10.99-7.1 23.95-3.67 36.74l13.54 50.55 50.54-13.54c17.25-4.61 30.16-17.35 35.73-32.99 3.35-9.42 3.83-19.39 1.75-28.77z" fill="url(#c)"/></g><g class="B F"><path d="M1337.32 2228.04l-61.43 106.41 71.31-19.11-13.54-50.56c-3.43-12.79-1.8-25.75 3.66-36.74z" class="C"/><path d="M1397.74 2301.79l-50.54 13.55 19.15 71.46 63.11-109.31c.4-.68.72-1.38 1.08-2.08-6.53 12.55-18.05 22.44-32.8 26.38z" class="C"/><path d="M1435.22 2240.04l-.61-2.29c-1.7-6.31-4.48-12.05-8.08-17.05-4.18-5.78-9.61-10.78-16.18-14.57l-.02-.02c-25-14.42-56.96-5.86-71.39 19.13l-1.62 2.8c-5.46 11-7.09 23.96-3.66 36.74l13.54 50.56 50.54-13.54c17.25-4.62 30.16-17.36 35.73-32.99 3.35-9.42 3.83-19.39 1.75-28.77z" class="G"/></g><g filter="url(#M)" class="B"><path d="M1321.06 2507.44c-27.86 7.46-44.41 36.12-36.95 64a52.09 52.09 0 0 0 64.01 36.95l4.33-1.17 61.42-106.38c6.02-12.15 16.72-21.9 30.45-26.41l-123.26 33.01z" fill="url(#d)"/><path d="M1447.25 2473.63l-2.94.79c-13.73 4.51-24.43 14.27-30.45 26.42l1.63-2.83c14.43-24.99 46.4-33.55 71.38-19.12l.03.01c6.53 3.77 11.93 8.74 16.1 14.47a52.34 52.34 0 0 0-16.15-14.56 52.09 52.09 0 0 0-39.6-5.18z" fill="url(#d)"/><path d="M1511.9 2513.26c2.13 9.95 1.25 19.93-2.06 28.91-1.02 2.76-2.29 5.47-3.81 8.11l-63.11 109.31 1.12 4.17c3.74 13.94 12.76 25.05 24.35 31.74a52.15 52.15 0 0 0 39.66 5.21c27.87-7.46 44.42-36.12 36.95-63.99l-33.1-123.46z" fill="url(#d)"/><path d="M1512.13 2533.32l-.25 1.69c.12-.57.15-1.14.25-1.69z" fill="url(#d)"/><path d="M1511.87 2535a51.76 51.76 0 0 1-2.06 7.15c.86-2.33 1.54-4.72 2.06-7.15z" fill="url(#d)"/><path d="M1512.88 2527.64c-.12 1.89-.43 3.78-.77 5.67l.77-5.67z" fill="url(#d)"/><path d="M1352.44 2607.22l-29.28 50.7c-14.43 24.99-5.85 56.95 19.14 71.38s56.95 5.87 71.38-19.12l29.21-50.61-19.14-71.45-71.31 19.1z" fill="url(#d)"/><path d="M1507.6 2547.21l-.7 1.35.7-1.35z" fill="url(#d)"/><path d="M1507.62 2547.21l2.21-5.05c-.64 1.73-1.39 3.4-2.21 5.05z" fill="url(#d)"/><path d="M1413.86 2500.84l-61.42 106.38 71.31-19.1-13.55-50.56a52.03 52.03 0 0 1 3.66-36.72z" fill="url(#d)"/><path d="M1474.29 2574.58l-50.54 13.54 19.14 71.46 63.11-109.31.9-1.71c-6.56 12.37-18.01 22.1-32.61 26.02z" fill="url(#d)"/><path d="M1511.77 2512.85l-.62-2.32c-1.7-6.37-4.51-12.14-8.15-17.17-4.17-5.73-9.58-10.69-16.11-14.46l-.02-.01c-24.99-14.43-56.95-5.87-71.38 19.12l-1.63 2.83a52.03 52.03 0 0 0-3.66 36.72l13.55 50.56 50.54-13.55c17.05-4.56 29.84-17.04 35.52-32.42 3.53-9.58 4.08-19.75 1.96-29.3z" fill="url(#d)"/></g><g class="B F"><path d="M1413.86 2500.84l-61.42 106.38 71.32-19.1-13.55-50.56a52.03 52.03 0 0 1 3.65-36.72z" class="C"/><path d="M1474.29 2574.57l-50.54 13.55 19.14 71.45 63.11-109.3.9-1.72c-6.56 12.38-18.01 22.11-32.61 26.02z" class="C"/><path d="M1511.77 2512.85l-.62-2.32c-1.71-6.37-4.51-12.14-8.15-17.17-4.17-5.73-9.58-10.69-16.11-14.46l-.02-.01c-24.99-14.43-56.95-5.87-71.38 19.12l-1.63 2.83a52.03 52.03 0 0 0-3.66 36.72l13.55 50.56 50.54-13.55c17.05-4.56 29.84-17.04 35.52-32.42 3.52-9.58 4.08-19.75 1.96-29.3z" class="G"/></g><g filter="url(#N)" class="B"><path d="M1593.84 2435.94c-27.88 7.46-44.42 36.12-36.95 63.99 3.74 13.94 12.77 25.04 24.35 31.73s25.71 8.95 39.64 5.22l4.34-1.15 61.42-106.39c6.03-12.15 16.72-21.91 30.44-26.42l-123.24 33.02z" fill="url(#e)"/><path d="M1720.04 2402.14l-2.94.78c-13.73 4.52-24.42 14.27-30.45 26.42l1.63-2.82c14.43-25 46.39-33.55 71.39-19.12l.02.01c6.58 3.8 12.01 8.8 16.19 14.57a52.39 52.39 0 0 0-16.23-14.67c-11.57-6.66-25.69-8.91-39.61-5.17z" fill="url(#e)"/><path d="M1784.66 2441.72a51.94 51.94 0 0 1-1.26 26.58c-1.13 3.58-2.66 7.09-4.61 10.47l-63.11 109.3 1.11 4.17a52.13 52.13 0 0 0 24.36 31.74c11.58 6.69 25.72 8.95 39.65 5.21 27.88-7.45 44.43-36.11 36.95-63.99l-33.09-123.48z" fill="url(#e)"/><path d="M1625.23 2535.73l-29.27 50.7c-14.43 24.99-5.86 56.95 19.13 71.38 25 14.43 56.96 5.87 71.39-19.13l29.21-50.6-19.15-71.46-71.31 19.11z" fill="url(#e)"/><path d="M1686.65 2429.34l-61.42 106.39 71.31-19.11-13.55-50.56c-3.42-12.78-1.8-25.72 3.66-36.72z" fill="url(#e)"/><path d="M1747.07 2503.07l-50.55 13.54 19.16 71.46 63.1-109.3c.57-.97 1.03-1.98 1.51-2.97-6.44 12.96-18.13 23.24-33.22 27.27z" fill="url(#e)"/><path d="M1784.56 2441.34l-.62-2.31c-1.69-6.31-4.46-12.05-8.07-17.05-4.18-5.77-9.61-10.78-16.19-14.57l-.02-.02c-24.99-14.43-56.95-5.87-71.38 19.13l-1.64 2.82c-5.45 11-7.08 23.94-3.65 36.72l13.54 50.56 50.55-13.54c17.91-4.8 31.13-18.33 36.33-34.77 2.79-8.89 3.09-18.19 1.15-26.97z" fill="url(#e)"/></g><g filter="url(#O)" class="B"><path d="M1045.91 2580.32c-27.87 7.47-44.42 36.12-36.95 64 3.73 13.94 12.77 25.03 24.35 31.72 11.57 6.68 25.7 8.96 39.64 5.22l4.34-1.15 61.43-106.41c6.03-12.14 16.73-21.89 30.45-26.4l-123.26 33.02z" fill="url(#f)"/><path d="M1172.08 2546.51l-2.92.78c-13.72 4.51-24.42 14.26-30.45 26.41l1.62-2.81c14.42-24.99 46.39-33.55 71.38-19.12l.02.01a51.94 51.94 0 0 1 16.3 14.74c-4.36-6.11-9.96-11.14-16.34-14.83a52.03 52.03 0 0 0-39.61-5.18z" fill="url(#f)"/><path d="M1236.72 2586.11a51.81 51.81 0 0 1-1.78 28.15l-.01.03h0a52.75 52.75 0 0 1-4.08 8.87l-63.1 109.3 1.11 4.17c3.74 13.94 12.77 25.05 24.36 31.74 11.57 6.68 25.71 8.95 39.65 5.22 27.87-7.47 44.42-36.12 36.95-64.01l-33.1-123.47z" fill="url(#f)"/><path d="M1077.27 2680.1l-29.27 50.7c-14.43 24.99-5.86 56.95 19.13 71.38 25 14.44 56.96 5.87 71.39-19.12l29.21-50.61-19.15-71.46-71.31 19.11z" fill="url(#f)"/><path d="M1138.71 2573.7l-61.44 106.4 71.32-19.11-13.55-50.55c-3.43-12.79-1.8-25.75 3.67-36.74z" fill="url(#f)"/><path d="M1199.14 2647.46l-50.54 13.53 19.15 71.47 63.11-109.3c.41-.7.73-1.43 1.11-2.14-6.53 12.56-18.06 22.48-32.83 26.44z" fill="url(#f)"/><path d="M1234.92 2614.28l.01-.03c3.28-9.36 3.74-19.24 1.67-28.56l-.61-2.28c-1.67-6.25-4.41-11.93-7.96-16.89a51.94 51.94 0 0 0-16.3-14.74l-.02-.01c-24.99-14.43-56.96-5.87-71.38 19.12l-1.62 2.81c-5.47 10.99-7.1 23.95-3.67 36.74l13.54 50.55 50.54-13.54c17.32-4.64 30.26-17.45 35.79-33.16l.01-.01z" fill="url(#f)"/></g><g class="B F"><path d="M1138.71 2573.69l-61.44 106.41 71.31-19.12-13.54-50.55c-3.43-12.79-1.8-25.75 3.67-36.74zm60.43 73.76l-50.54 13.54 19.15 71.47 63.11-109.31 1.11-2.13c-6.53 12.56-18.06 22.48-32.83 26.43z" class="C"/><path d="M1234.92 2614.27l.01-.02c3.28-9.37 3.75-19.25 1.67-28.56l-.61-2.29c-1.67-6.24-4.41-11.92-7.96-16.88a51.82 51.82 0 0 0-16.3-14.74l-.02-.02c-24.99-14.43-56.96-5.86-71.38 19.13l-1.62 2.8c-5.47 10.99-7.1 23.95-3.67 36.74l13.55 50.55 50.53-13.54c17.32-4.63 30.27-17.44 35.8-33.16v-.01z" class="G"/></g><g filter="url(#P)" class="B"><path d="M1118.91 2856.12c-27.87 7.46-44.41 36.12-36.94 64 3.74 13.93 12.76 25.04 24.35 31.72 11.58 6.69 25.71 8.95 39.64 5.23l4.34-1.16 61.42-106.39c6.02-12.15 16.72-21.91 30.44-26.42l-123.25 33.02z" fill="url(#g)"/><path d="M1245.12 2822.32l-2.95.79c-13.72 4.51-24.41 14.27-30.44 26.41l1.63-2.82c14.43-24.99 46.39-33.55 71.39-19.12l.02.01c6.58 3.8 12.01 8.81 16.19 14.57-4.35-6.02-9.91-11-16.24-14.66a52 52 0 0 0-39.6-5.18z" fill="url(#g)"/><path d="M1309.73 2861.9a51.83 51.83 0 0 1-1.25 26.58c-1.13 3.58-2.66 7.09-4.62 10.47l-63.1 109.31 1.11 4.16a52.15 52.15 0 0 0 24.36 31.75c11.58 6.68 25.72 8.94 39.65 5.21 27.88-7.46 44.42-36.12 36.95-64l-33.1-123.48z" fill="url(#g)"/><path d="M1211.73 2849.52l-61.42 106.39 71.3-19.11-13.54-50.55c-3.42-12.78-1.8-25.73 3.66-36.73z" fill="url(#g)"/><path d="M1272.15 2923.26l-50.55 13.54 19.16 71.46 63.1-109.31c.56-.97 1.02-1.98 1.51-2.97-6.44 12.96-18.13 23.24-33.22 27.28z" fill="url(#g)"/><path d="M1309.63 2861.52l-.61-2.31c-1.69-6.31-4.46-12.04-8.07-17.05-4.18-5.77-9.61-10.77-16.19-14.57l-.02-.01c-25-14.43-56.96-5.87-71.39 19.12l-1.63 2.82c-5.45 11-7.08 23.95-3.65 36.72l13.54 50.56 50.54-13.54c17.92-4.79 31.14-18.32 36.34-34.77 2.79-8.89 3.09-18.19 1.14-26.97z" fill="url(#g)"/><path d="M1150.31 2955.91l-29.27 50.7c-14.43 24.99-5.86 56.95 19.13 71.38 25 14.43 56.96 5.87 71.39-19.12l29.21-50.61-19.15-71.46-71.31 19.11z" fill="url(#g)"/></g><g class="B F"><path d="M1211.73 2849.52l-61.43 106.39 71.31-19.11-13.54-50.56c-3.42-12.77-1.8-25.72 3.66-36.72z" class="C"/><path d="M1272.15 2923.26l-50.55 13.54 19.15 71.46 63.11-109.31c.56-.97 1.02-1.98 1.51-2.97-6.44 12.96-18.13 23.24-33.22 27.28z" class="C"/><path d="M1309.63 2861.52l-.62-2.3c-1.68-6.31-4.46-12.05-8.06-17.05-4.18-5.77-9.62-10.78-16.19-14.58l-.03-.01c-24.99-14.43-56.95-5.87-71.38 19.12l-1.63 2.83a52.03 52.03 0 0 0-3.66 36.72l13.55 50.55 50.54-13.53c17.91-4.8 31.14-18.33 36.33-34.78 2.8-8.89 3.1-18.18 1.15-26.97z" class="G"/></g><g filter="url(#Q)" class="B"><path d="M1395.12 2780.7c-27.88 7.46-44.43 36.13-36.96 64.01a52.11 52.11 0 0 0 24.35 31.71c11.58 6.69 25.71 8.96 39.65 5.24l4.33-1.17 61.43-106.41c6.03-12.14 16.74-21.9 30.46-26.41l-123.26 33.03z" fill="url(#h)"/><path d="M1521.29 2746.89l-2.92.78c-13.73 4.51-24.43 14.26-30.46 26.41l1.62-2.81c14.43-25 46.4-33.55 71.39-19.12 5.9 3.41 10.89 7.79 14.88 12.84-4.13-5.25-9.2-9.63-14.9-12.92-11.57-6.67-25.69-8.93-39.61-5.18z" fill="url(#h)"/><path d="M1585.92 2786.46c1.95 9.06 1.4 18.14-1.21 26.47a52.36 52.36 0 0 1-4.64 10.6l-63.12 109.31 1.12 4.17c3.74 13.94 12.77 25.05 24.36 31.74 11.58 6.69 25.71 8.95 39.65 5.22 27.87-7.46 44.42-36.13 36.95-64.01l-33.11-123.5z" fill="url(#h)"/><path d="M1586.99 2798.1l.01 1.4c.03-.47-.02-.93-.01-1.4z" fill="url(#h)"/><path d="M1587.02 2799.51c-.07 1.83-.29 3.65-.57 5.48.28-1.81.5-3.63.57-5.48z" fill="url(#h)"/><path d="M1586.31 2806.29c-.39 2.23-.92 4.45-1.6 6.64.67-2.17 1.2-4.39 1.6-6.64z" fill="url(#h)"/><path d="M1586.44 2804.98l-.14 1.3c.07-.43.08-.87.14-1.3z" fill="url(#h)"/><path d="M1426.48 2880.49l-29.27 50.7c-14.43 24.99-5.85 56.94 19.14 71.37 24.99 14.44 56.95 5.88 71.38-19.12l29.21-50.59-19.14-71.48-71.32 19.12z" fill="url(#h)"/><path d="M1487.91 2774.08l-61.43 106.4 71.32-19.11-13.55-50.56c-3.42-12.78-1.79-25.73 3.66-36.73z" fill="url(#h)"/><path d="M1548.35 2847.83l-50.54 13.54 19.14 71.48 63.12-109.32c.58-1.01 1.04-2.05 1.55-3.08-6.43 13.02-18.15 23.33-33.27 27.38z" fill="url(#h)"/><path d="M1585.77 2785.9l-.58-2.12c-1.3-4.88-3.25-9.41-5.74-13.53-4.4-7.26-10.65-13.55-18.53-18.1-24.99-14.43-56.96-5.88-71.39 19.12l-1.62 2.81c-5.45 11-7.09 23.95-3.67 36.73l13.55 50.56 50.54-13.54c17.96-4.81 31.21-18.4 36.37-34.9a52.12 52.12 0 0 0 1.07-27.03z" fill="url(#h)"/></g><g class="B F"><path d="M1487.92 2774.08l-61.44 106.4 71.32-19.11-13.55-50.56c-3.42-12.79-1.79-25.74 3.67-36.73z" class="C"/><path d="M1548.34 2847.82l-50.54 13.55 19.15 71.47 63.12-109.32c.58-1 1.04-2.05 1.55-3.07-6.43 13.01-18.15 23.33-33.28 27.37z" class="C"/><path d="M1585.77 2785.9l-.58-2.12c-1.3-4.87-3.25-9.41-5.74-13.53-4.4-7.26-10.65-13.55-18.53-18.1-24.99-14.43-56.96-5.88-71.39 19.12l-1.62 2.81c-5.45 11-7.09 23.95-3.66 36.73l13.54 50.56 50.54-13.54c17.96-4.81 31.21-18.4 36.37-34.9 2.78-8.91 3.06-18.24 1.07-27.03z" class="G"/></g><defs><filter id="A" x="-89.853" y="870.525" width="343.526" height="343.606" filterUnits="userSpaceOnUse" class="D"><feFlood result="A" class="E"/><feColorMatrix in="SourceAlpha" values="0 0 0 0 0 0 0 0 0 0 0 0 0 0 0 0 0 0 127 0"/><feOffset dy="27.3459"/><feGaussianBlur stdDeviation="21.41"/><feColorMatrix values="0 0 0 0 0.25098 0 0 0 0 0.815686 0 0 0 0 0.647059 0 0 0 0.3 0"/><feBlend in2="A"/><feBlend in="SourceGraphic"/></filter><filter id="B" x="-15.204" y="1136.58" width="343.542" height="343.553" filterUnits="userSpaceOnUse" class="D"><feFlood result="A" class="E"/><feColorMatrix in="SourceAlpha" values="0 0 0 0 0 0 0 0 0 0 0 0 0 0 0 0 0 0 127 0"/><feOffset dy="27.3459"/><feGaussianBlur stdDeviation="21.41"/><feColorMatrix values="0 0 0 0 0.388235 0 0 0 0 0.352941 0 0 0 0 0.890196 0 0 0 0.3 0"/><feBlend in2="A"/><feBlend in="SourceGraphic"/></filter><filter id="C" x="250.793" y="1066.86" width="343.528" height="343.555" filterUnits="userSpaceOnUse" class="D"><feFlood result="A" class="E"/><feColorMatrix in="SourceAlpha" values="0 0 0 0 0 0 0 0 0 0 0 0 0 0 0 0 0 0 127 0"/><feOffset dy="27.3459"/><feGaussianBlur stdDeviation="21.41"/><feColorMatrix values="0 0 0 0 0.698039 0 0 0 0 0.360784 0 0 0 0 0.827451 0 0 0 0.3 0"/><feBlend in2="A"/><feBlend in="SourceGraphic"/></filter><filter id="D" x="-283.529" y="1207.65" width="343.52" height="343.561" filterUnits="userSpaceOnUse" class="D"><feFlood result="A" class="E"/><feColorMatrix in="SourceAlpha" values="0 0 0 0 0 0 0 0 0 0 0 0 0 0 0 0 0 0 127 0"/><feOffset dy="27.3459"/><feGaussianBlur stdDeviation="21.41"/><feColorMatrix values="0 0 0 0 0.980392 0 0 0 0 0.764706 0 0 0 0 0.533333 0 0 0 0.3 0"/><feBlend in2="A"/><feBlend in="SourceGraphic"/></filter><filter id="E" x="-212.336" y="1476.61" width="343.528" height="343.555" filterUnits="userSpaceOnUse" class="D"><feFlood result="A" class="E"/><feColorMatrix in="SourceAlpha" values="0 0 0 0 0 0 0 0 0 0 0 0 0 0 0 0 0 0 127 0"/><feOffset dy="27.3459"/><feGaussianBlur stdDeviation="21.41"/><feColorMatrix values="0 0 0 0 0.984314 0 0 0 0 0.384314 0 0 0 0 0.552941 0 0 0 0.3 0"/><feBlend in2="A"/><feBlend in="SourceGraphic"/></filter><filter id="F" x="57.002" y="1403.05" width="343.531" height="343.568" filterUnits="userSpaceOnUse" class="D"><feFlood result="A" class="E"/><feColorMatrix in="SourceAlpha" values="0 0 0 0 0 0 0 0 0 0 0 0 0 0 0 0 0 0 127 0"/><feOffset dy="27.3459"/><feGaussianBlur stdDeviation="21.41"/><feColorMatrix values="0 0 0 0 0.235294 0 0 0 0 0.694118 0 0 0 0 0.886275 0 0 0 0.3 0"/><feBlend in2="A"/><feBlend in="SourceGraphic"/></filter><filter id="G" x="1364.79" y=".525" width="350.093" height="350.175" filterUnits="userSpaceOnUse" class="D"><feFlood result="A" class="E"/><feColorMatrix in="SourceAlpha" values="0 0 0 0 0 0 0 0 0 0 0 0 0 0 0 0 0 0 127 0"/><feOffset dy="27.3459"/><feGaussianBlur stdDeviation="21.41"/><feColorMatrix values="0 0 0 0 0.25098 0 0 0 0 0.815686 0 0 0 0 0.647059 0 0 0 0.3 0"/><feBlend in2="A"/><feBlend in="SourceGraphic"/></filter><filter id="H" x="1441.34" y="273.358" width="350.109" height="350.12" filterUnits="userSpaceOnUse" class="D"><feFlood result="A" class="E"/><feColorMatrix in="SourceAlpha" values="0 0 0 0 0 0 0 0 0 0 0 0 0 0 0 0 0 0 127 0"/><feOffset dy="27.3459"/><feGaussianBlur stdDeviation="21.41"/><feColorMatrix values="0 0 0 0 0.388235 0 0 0 0 0.352941 0 0 0 0 0.890196 0 0 0 0.3 0"/><feBlend in2="A"/><feBlend in="SourceGraphic"/></filter><filter id="I" x="1166.18" y="346.233" width="350.086" height="350.129" filterUnits="userSpaceOnUse" class="D"><feFlood result="A" class="E"/><feColorMatrix in="SourceAlpha" values="0 0 0 0 0 0 0 0 0 0 0 0 0 0 0 0 0 0 127 0"/><feOffset dy="27.3459"/><feGaussianBlur stdDeviation="21.41"/><feColorMatrix values="0 0 0 0 0.980392 0 0 0 0 0.764706 0 0 0 0 0.533333 0 0 0 0.3 0"/><feBlend in2="A"/><feBlend in="SourceGraphic"/></filter><filter id="J" x="1239.19" y="622.045" width="350.095" height="350.122" filterUnits="userSpaceOnUse" class="D"><feFlood result="A" class="E"/><feColorMatrix in="SourceAlpha" values="0 0 0 0 0 0 0 0 0 0 0 0 0 0 0 0 0 0 127 0"/><feOffset dy="27.3459"/><feGaussianBlur stdDeviation="21.41"/><feColorMatrix values="0 0 0 0 0.984314 0 0 0 0 0.384314 0 0 0 0 0.552941 0 0 0 0.3 0"/><feBlend in2="A"/><feBlend in="SourceGraphic"/></filter><filter id="K" x="1515.38" y="546.608" width="350.098" height="350.135" filterUnits="userSpaceOnUse" class="D"><feFlood result="A" class="E"/><feColorMatrix in="SourceAlpha" values="0 0 0 0 0 0 0 0 0 0 0 0 0 0 0 0 0 0 127 0"/><feOffset dy="27.3459"/><feGaussianBlur stdDeviation="21.41"/><feColorMatrix values="0 0 0 0 0.235294 0 0 0 0 0.694118 0 0 0 0 0.886275 0 0 0 0.3 0"/><feBlend in2="A"/><feBlend in="SourceGraphic"/></filter><filter id="L" x="1162.95" y="2183.53" width="350.093" height="350.175" filterUnits="userSpaceOnUse" class="D"><feFlood result="A" class="E"/><feColorMatrix in="SourceAlpha" values="0 0 0 0 0 0 0 0 0 0 0 0 0 0 0 0 0 0 127 0"/><feOffset dy="27.3459"/><feGaussianBlur stdDeviation="21.41"/><feColorMatrix values="0 0 0 0 0.25098 0 0 0 0 0.815686 0 0 0 0 0.647059 0 0 0 0.3 0"/><feBlend in2="A"/><feBlend in="SourceGraphic"/></filter><filter id="M" x="1239.5" y="2456.36" width="350.109" height="350.12" filterUnits="userSpaceOnUse" class="D"><feFlood result="A" class="E"/><feColorMatrix in="SourceAlpha" values="0 0 0 0 0 0 0 0 0 0 0 0 0 0 0 0 0 0 127 0"/><feOffset dy="27.3459"/><feGaussianBlur stdDeviation="21.41"/><feColorMatrix values="0 0 0 0 0.388235 0 0 0 0 0.352941 0 0 0 0 0.890196 0 0 0 0.3 0"/><feBlend in2="A"/><feBlend in="SourceGraphic"/></filter><filter id="N" x="1512.27" y="2384.86" width="350.095" height="350.122" filterUnits="userSpaceOnUse" class="D"><feFlood result="A" class="E"/><feColorMatrix in="SourceAlpha" values="0 0 0 0 0 0 0 0 0 0 0 0 0 0 0 0 0 0 127 0"/><feOffset dy="27.3459"/><feGaussianBlur stdDeviation="21.41"/><feColorMatrix values="0 0 0 0 0.698039 0 0 0 0 0.360784 0 0 0 0 0.827451 0 0 0 0.3 0"/><feBlend in2="A"/><feBlend in="SourceGraphic"/></filter><filter id="O" x="964.345" y="2529.23" width="350.086" height="350.129" filterUnits="userSpaceOnUse" class="D"><feFlood result="A" class="E"/><feColorMatrix in="SourceAlpha" values="0 0 0 0 0 0 0 0 0 0 0 0 0 0 0 0 0 0 127 0"/><feOffset dy="27.3459"/><feGaussianBlur stdDeviation="21.41"/><feColorMatrix values="0 0 0 0 0.980392 0 0 0 0 0.764706 0 0 0 0 0.533333 0 0 0 0.3 0"/><feBlend in2="A"/><feBlend in="SourceGraphic"/></filter><filter id="P" x="1037.35" y="2805.04" width="350.095" height="350.122" filterUnits="userSpaceOnUse" class="D"><feFlood result="A" class="E"/><feColorMatrix in="SourceAlpha" values="0 0 0 0 0 0 0 0 0 0 0 0 0 0 0 0 0 0 127 0"/><feOffset dy="27.3459"/><feGaussianBlur stdDeviation="21.41"/><feColorMatrix values="0 0 0 0 0.984314 0 0 0 0 0.384314 0 0 0 0 0.552941 0 0 0 0.3 0"/><feBlend in2="A"/><feBlend in="SourceGraphic"/></filter><filter id="Q" x="1313.55" y="2729.61" width="350.098" height="350.135" filterUnits="userSpaceOnUse" class="D"><feFlood result="A" class="E"/><feColorMatrix in="SourceAlpha" values="0 0 0 0 0 0 0 0 0 0 0 0 0 0 0 0 0 0 127 0"/><feOffset dy="27.3459"/><feGaussianBlur stdDeviation="21.41"/><feColorMatrix values="0 0 0 0 0.235294 0 0 0 0 0.694118 0 0 0 0 0.886275 0 0 0 0.3 0"/><feBlend in2="A"/><feBlend in="SourceGraphic"/></filter><linearGradient id="R" x1="-47.032" y1="932.434" x2="210.899" y2="1097.46" xlink:href="#j"><stop stop-color="#43e695"/><stop offset="1" stop-color="#00b884"/></linearGradient><linearGradient id="S" x1="27.617" y1="1198.48" x2="285.524" y2="1363.54" xlink:href="#j"><stop stop-color="#c54aff"/><stop offset="1" stop-color="#635ae3"/></linearGradient><linearGradient id="T" x1="293.613" y1="1128.76" x2="551.516" y2="1293.8" xlink:href="#j"><stop stop-color="#f030c1"/><stop offset="1" stop-color="#ad60ea"/></linearGradient><linearGradient id="U" x1="-240.708" y1="1269.55" x2="17.195" y2="1434.58" xlink:href="#j"><stop stop-color="#ffc800"/><stop offset="1" stop-color="#f38181"/></linearGradient><linearGradient id="V" x1="88.371" y1="1703.58" x2="-169.531" y2="1538.53" xlink:href="#j"><stop stop-color="#ff7676"/><stop offset="1" stop-color="#df2482"/></linearGradient><linearGradient id="W" x1="103.547" y1="1464.95" x2="357.733" y2="1629.99" xlink:href="#j"><stop stop-color="#17ead9"/><stop offset="1" stop-color="#6078ea"/></linearGradient><linearGradient id="X" x1="1407.61" y1="63.616" x2="1672.11" y2="232.843" xlink:href="#j"><stop stop-color="#43e695"/><stop offset="1" stop-color="#00b884"/></linearGradient><linearGradient id="Y" x1="1484.16" y1="336.439" x2="1748.63" y2="505.695" xlink:href="#j"><stop stop-color="#c54aff"/><stop offset="1" stop-color="#635ae3"/></linearGradient><linearGradient id="Z" x1="1209" y1="409.315" x2="1473.47" y2="578.549" xlink:href="#j"><stop stop-color="#ffc800"/><stop offset="1" stop-color="#f38181"/></linearGradient><linearGradient id="a" x1="1546.46" y1="854.394" x2="1281.99" y2="685.151" xlink:href="#j"><stop stop-color="#ff7676"/><stop offset="1" stop-color="#df2482"/></linearGradient><linearGradient id="b" x1="1562.02" y1="609.692" x2="1822.68" y2="778.934" xlink:href="#j"><stop stop-color="#17ead9"/><stop offset="1" stop-color="#6078ea"/></linearGradient><linearGradient id="c" x1="1205.77" y1="2246.62" x2="1470.27" y2="2415.84" xlink:href="#j"><stop stop-color="#43e695"/><stop offset="1" stop-color="#00b884"/></linearGradient><linearGradient id="d" x1="1282.32" y1="2519.44" x2="1546.8" y2="2688.7" xlink:href="#j"><stop stop-color="#c54aff"/><stop offset="1" stop-color="#635ae3"/></linearGradient><linearGradient id="e" x1="1555.09" y1="2447.94" x2="1819.56" y2="2617.19" xlink:href="#j"><stop stop-color="#f030c1"/><stop offset="1" stop-color="#ad60ea"/></linearGradient><linearGradient id="f" x1="1007.17" y1="2592.32" x2="1271.64" y2="2761.55" xlink:href="#j"><stop stop-color="#ffc800"/><stop offset="1" stop-color="#f38181"/></linearGradient><linearGradient id="g" x1="1344.63" y1="3037.39" x2="1080.16" y2="2868.15" xlink:href="#j"><stop stop-color="#ff7676"/><stop offset="1" stop-color="#df2482"/></linearGradient><linearGradient id="h" x1="1360.19" y1="2792.69" x2="1620.85" y2="2961.93" xlink:href="#j"><stop stop-color="#17ead9"/><stop offset="1" stop-color="#6078ea"/></linearGradient><path id="i" d="M1599.58 118.797l-50.54 13.542 19.15 71.468 63.11-109.311 1.07-2.088c-6.52 12.55-18.05 22.442-32.79 26.388z"/><linearGradient id="j" gradientUnits="userSpaceOnUse"/></defs></svg>